
<svg class="animated" id="freepik_stories-record-player" xmlns="http://www.w3.org/2000/svg" viewBox="0 0 500 500" version="1.1" xmlns:xlink="http://www.w3.org/1999/xlink" xmlns:svgjs="http://svgjs.com/svgjs"><g id="freepik--Floor--inject-2" class="animable" style="transform-origin: 248px 353.66px;"><ellipse id="freepik--floor--inject-2" cx="248" cy="353.66" rx="235.6" ry="136.02" style="fill: rgb(245, 245, 245); transform-origin: 248px 353.66px;" class="animable"></ellipse></g><g id="freepik--Pictures--inject-2" class="animable" style="transform-origin: 442.975px 102.475px;"><g id="freepik--Picture--inject-2" class="animable" style="transform-origin: 442.975px 66.37px;"><g id="freepik--Frame--inject-2" class="animable" style="transform-origin: 442.975px 66.37px;"><polygon points="465.38 100.6 463.3 101.84 420.54 77.16 422.62 75.91 465.38 100.6" style="fill: rgb(250, 250, 250); transform-origin: 442.96px 88.875px;" id="eljplx5rbzxl" class="animable"></polygon><polygon points="422.62 75.91 463.3 99.39 463.3 56.8 422.62 33.33 422.62 75.91" style="fill: rgb(255, 255, 255); transform-origin: 442.96px 66.36px;" id="elhdwm4rq5vj6" class="animable"></polygon><path d="M416.61,79.42l50.62,29.23V54.53L416.61,25.3Zm3.93-47.31L463.3,56.8v45L420.54,77.16Z" style="fill: rgb(240, 240, 240); transform-origin: 441.92px 66.975px;" id="elsfoxt4gjo3" class="animable"></path><polygon points="420.54 77.16 422.62 75.91 422.62 33.33 420.54 32.11 420.54 77.16" style="fill: rgb(224, 224, 224); transform-origin: 421.58px 54.635px;" id="elqma9d1qck" class="animable"></polygon><polygon points="416.61 25.3 418.72 24.09 469.34 53.32 467.23 54.53 416.61 25.3" style="fill: rgb(250, 250, 250); transform-origin: 442.975px 39.31px;" id="elqqd3vegvymp" class="animable"></polygon><polygon points="469.34 53.32 467.23 54.53 467.23 108.65 469.34 107.44 469.34 53.32" style="fill: rgb(224, 224, 224); transform-origin: 468.285px 80.985px;" id="elbas92nk1p8" class="animable"></polygon></g><g id="freepik--Land--inject-2" class="animable" style="transform-origin: 442.96px 73.45px;"><polygon points="424.21 74.64 461.71 96.29 461.71 85.46 452.33 63.81 446.49 69.23 448.59 78.3 435.64 50.61 424.21 63.81 424.21 74.64" style="fill: rgb(240, 240, 240); transform-origin: 442.96px 73.45px;" id="elotyytf9kbn" class="animable"></polygon><path d="M446.85,53.36a6.15,6.15,0,0,1,2.77,4.8c0,1.77-1.24,2.49-2.77,1.61A6.13,6.13,0,0,1,444.07,55C444.07,53.19,445.31,52.48,446.85,53.36Z" style="fill: rgb(240, 240, 240); transform-origin: 446.845px 56.5645px;" id="elzjadle56pzf" class="animable"></path></g></g><g id="freepik--picture--inject-2" class="animable" style="transform-origin: 442.975px 138.58px;"><g id="freepik--frame--inject-2" class="animable" style="transform-origin: 442.975px 138.58px;"><polygon points="465.38 172.81 463.3 174.05 420.54 149.36 422.62 148.12 465.38 172.81" style="fill: rgb(250, 250, 250); transform-origin: 442.96px 161.085px;" id="elpolo41z2pf" class="animable"></polygon><polygon points="422.62 148.12 463.3 171.6 463.3 129 422.62 105.54 422.62 148.12" style="fill: rgb(255, 255, 255); transform-origin: 442.96px 138.57px;" id="elfi09a6zacpb" class="animable"></polygon><path d="M416.61,151.63l50.62,29.23V126.73L416.61,97.51Zm3.93-47.31L463.3,129v45.05l-42.76-24.69Z" style="fill: rgb(240, 240, 240); transform-origin: 441.92px 139.185px;" id="eloby3ostwa5s" class="animable"></path><polygon points="420.54 149.36 422.62 148.12 422.62 105.54 420.54 104.32 420.54 149.36" style="fill: rgb(224, 224, 224); transform-origin: 421.58px 126.84px;" id="elf8gh8ecnde5" class="animable"></polygon><polygon points="416.61 97.51 418.72 96.3 469.34 125.52 467.23 126.73 416.61 97.51" style="fill: rgb(250, 250, 250); transform-origin: 442.975px 111.515px;" id="elibq8lhe08v" class="animable"></polygon><polygon points="469.34 125.52 467.23 126.73 467.23 180.86 469.34 179.65 469.34 125.52" style="fill: rgb(224, 224, 224); transform-origin: 468.285px 153.19px;" id="eln5zbwuuvffm" class="animable"></polygon></g><g id="freepik--land--inject-2" class="animable" style="transform-origin: 442.96px 145.66px;"><polygon points="424.21 146.84 461.71 168.5 461.71 157.67 452.33 136.02 446.49 141.43 448.59 150.51 435.64 122.82 424.21 136.02 424.21 146.84" style="fill: rgb(240, 240, 240); transform-origin: 442.96px 145.66px;" id="elxgz3awfbzcr" class="animable"></polygon><path d="M446.85,125.57a6.12,6.12,0,0,1,2.77,4.8c0,1.77-1.24,2.49-2.77,1.6a6.1,6.1,0,0,1-2.78-4.8C444.07,125.4,445.31,124.68,446.85,125.57Z" style="fill: rgb(240, 240, 240); transform-origin: 446.845px 128.77px;" id="elwfscx858cg" class="animable"></path></g></g></g><g id="freepik--Shelf--inject-2" class="animable" style="transform-origin: 99.145px 87.35px;"><g id="freepik--shelf--inject-2" class="animable" style="transform-origin: 99.145px 87.35px;"><polygon points="171.36 81.2 136.89 61.3 26.93 124.75 26.93 128.53 61.4 148.44 171.36 84.98 171.36 81.2" style="fill: rgb(235, 235, 235); transform-origin: 99.145px 104.87px;" id="el28nypt82qfs" class="animable"></polygon><polygon points="61.4 144.66 171.36 81.2 136.89 61.3 26.93 124.75 61.4 144.66" style="fill: rgb(250, 250, 250); transform-origin: 99.145px 102.98px;" id="elt6b43gb94kf" class="animable"></polygon><polygon points="61.4 144.66 61.4 148.44 26.93 128.53 26.93 124.75 61.4 144.66" style="fill: rgb(230, 230, 230); transform-origin: 44.165px 136.595px;" id="elhnpbrukikkg" class="animable"></polygon><polygon points="138.73 26.77 161.08 39.69 161.08 82.21 138.73 69.3 138.73 26.77" style="fill: rgb(224, 224, 224); transform-origin: 149.905px 54.49px;" id="eljq5h3jix5ks" class="animable"></polygon><path d="M160.36,40.39,138.73,28a9.19,9.19,0,0,1-4.95,2.7L155.23,43S156.62,42.72,160.36,40.39Z" style="fill: rgb(255, 255, 255); transform-origin: 147.07px 35.5px;" id="el0gprmfytirwl" class="animable"></path><path d="M153.15,43a4.62,4.62,0,0,0,4.16,0L161,40.88a1.26,1.26,0,0,0,0-2.39L139.63,26.26l-.9.51,21,12.11c.69.4.69,1,0,1.43l-3.39,1.92a2.73,2.73,0,0,1-2.49,0l-21-12.08-1,.58Z" style="fill: rgb(250, 250, 250); transform-origin: 146.855px 34.8774px;" id="elbquiuzy1hz" class="animable"></path><path d="M131.83,30.73V73.26l21.32,12.23a4.62,4.62,0,0,0,4.16,0L161,83.4a1.46,1.46,0,0,0,.86-1.19V39.68a1.46,1.46,0,0,1-.86,1.2L157.31,43a4.62,4.62,0,0,1-4.16,0Z" style="fill: rgb(224, 224, 224); transform-origin: 146.845px 58.3574px;" id="eld7bwm4o2yab" class="animable"></path><path d="M155.23,43.47a4.27,4.27,0,0,0,2.08-.5L161,40.88a1.46,1.46,0,0,0,.86-1.2V82.21A1.46,1.46,0,0,1,161,83.4l-3.64,2.09a4.27,4.27,0,0,1-2.08.5Z" style="fill: rgb(240, 240, 240); transform-origin: 158.545px 62.8353px;" id="eljsof8sow7tj" class="animable"></path><polygon points="129.59 32.02 151.94 44.93 151.94 87.46 129.59 74.55 129.59 32.02" style="fill: rgb(235, 235, 235); transform-origin: 140.765px 59.74px;" id="el0jmy2horcn16" class="animable"></polygon><path d="M151.22,45.64,129.59,33.22a9.14,9.14,0,0,1-5,2.71l21.45,12.36S147.48,48,151.22,45.64Z" style="fill: rgb(255, 255, 255); transform-origin: 137.905px 40.755px;" id="elxscigw8umes" class="animable"></path><path d="M144,48.22a4.62,4.62,0,0,0,4.16,0l3.64-2.09a1.26,1.26,0,0,0,0-2.39L130.49,31.5l-.9.52,21,12.11a.75.75,0,0,1,0,1.43l-3.39,1.92a2.73,2.73,0,0,1-2.49,0l-21-12.09-1,.59Z" style="fill: rgb(250, 250, 250); transform-origin: 137.685px 40.1074px;" id="elqfp1krwqe4" class="animable"></path><path d="M122.69,36V78.51L144,90.74a4.62,4.62,0,0,0,4.16,0l3.64-2.09a1.46,1.46,0,0,0,.86-1.19V44.93a1.43,1.43,0,0,1-.86,1.19l-3.64,2.1a4.62,4.62,0,0,1-4.16,0Z" style="fill: rgb(224, 224, 224); transform-origin: 137.675px 63.6174px;" id="elznfgrn5rdw" class="animable"></path><path d="M146.09,48.71a4.26,4.26,0,0,0,2.08-.49l3.64-2.1a1.43,1.43,0,0,0,.86-1.19V87.46a1.46,1.46,0,0,1-.86,1.19l-3.64,2.09a4.26,4.26,0,0,1-2.08.49Z" style="fill: rgb(240, 240, 240); transform-origin: 149.38px 68.0805px;" id="elrhuweppgu5" class="animable"></path><polygon points="114.32 43.32 136.68 56.23 129.73 100.05 107.38 87.14 114.32 43.32" style="fill: rgb(235, 235, 235); transform-origin: 122.03px 71.685px;" id="el8vedvjopor6" class="animable"></polygon><path d="M135.79,56.85,114.15,44.42a11.85,11.85,0,0,1-5.76,2.24L129.84,59A28,28,0,0,0,135.79,56.85Z" style="fill: rgb(255, 255, 255); transform-origin: 122.09px 51.71px;" id="el63qkysowv4d" class="animable"></path><path d="M127.6,58.86a5.81,5.81,0,0,0,4.51.2l4.25-1.74c1.34-.55,1.5-1.53.35-2.18L115.38,42.89l-1.06.43,21,12.11c.69.4.6,1-.21,1.31l-4,1.6a3.5,3.5,0,0,1-2.7-.13l-21-12.08-1.19.48Z" style="fill: rgb(250, 250, 250); transform-origin: 121.849px 51.1558px;" id="elpnw204izbqk" class="animable"></path><path d="M106.27,46.61,99.33,90.42l21.33,12.25a5.9,5.9,0,0,0,4.51.2l4.25-1.74c.67-.27,1-.65,1.11-1l6.94-43.81c-.06.4-.44.78-1.11,1l-4.25,1.74a5.81,5.81,0,0,1-4.51-.2Z" style="fill: rgb(224, 224, 224); transform-origin: 118.4px 74.9171px;" id="eltbj3cxi47n" class="animable"></path><path d="M129.78,59.41a5.68,5.68,0,0,0,2.33-.35l4.25-1.74c.67-.27,1-.65,1.11-1l-6.94,43.81c-.07.4-.44.78-1.11,1l-4.25,1.74a5.68,5.68,0,0,1-2.33.35Z" style="fill: rgb(240, 240, 240); transform-origin: 130.155px 79.7751px;" id="el1cv1pl8fpvk" class="animable"></path><g id="freepik--picture--inject-2" class="animable" style="transform-origin: 90.52px 93.19px;"><g id="freepik--frame--inject-2" class="animable" style="transform-origin: 90.52px 93.19px;"><polygon points="77.18 122.91 78.76 123.67 108.09 106.74 106.51 105.97 77.18 122.91" style="fill: rgb(250, 250, 250); transform-origin: 92.635px 114.82px;" id="elh5wwy8d8o8k" class="animable"></polygon><polygon points="106.51 105.97 78.61 122.08 74.55 80.35 102.45 64.25 106.51 105.97" style="fill: rgb(255, 255, 255); transform-origin: 90.53px 93.165px;" id="elwx94u7ifhv" class="animable"></polygon><path d="M106.29,58.91,71.57,79l4.78,49.21,34.73-20Zm1.8,47.83L78.76,123.67,74.55,80.35l29.33-16.94Z" style="fill: rgb(240, 240, 240); transform-origin: 91.325px 93.56px;" id="ellzudgxdtqm" class="animable"></path><polygon points="108.09 106.74 106.51 105.97 102.45 64.25 103.88 63.41 108.09 106.74" style="fill: rgb(224, 224, 224); transform-origin: 105.27px 85.075px;" id="el0auyyrk0xlsn" class="animable"></polygon><polygon points="106.29 58.91 104.68 58.17 69.96 78.21 71.57 78.96 106.29 58.91" style="fill: rgb(250, 250, 250); transform-origin: 88.125px 68.565px;" id="el18du71fybdk" class="animable"></polygon><polygon points="69.96 78.21 71.57 78.96 76.35 128.17 74.75 127.43 69.96 78.21" style="fill: rgb(224, 224, 224); transform-origin: 73.155px 103.19px;" id="elghtux0ifw5q" class="animable"></polygon></g><g id="freepik--land--inject-2" class="animable" style="transform-origin: 92.08px 101.705px;"><polygon points="105.28 105.18 79.56 120.03 78.88 113 83.66 92.35 88.22 99.39 87.28 105.33 94.88 83.42 104.6 98.15 105.28 105.18" style="fill: rgb(240, 240, 240); transform-origin: 92.08px 101.725px;" id="elih4tn74g4zq" class="animable"></polygon><path d="M83.27,83.65a3.59,3.59,0,0,0-1.7,3.18c.11,1.15,1.05,1.59,2.1,1a3.62,3.62,0,0,0,1.7-3.18C85.26,83.48,84.32,83.05,83.27,83.65Z" style="fill: rgb(240, 240, 240); transform-origin: 83.4697px 85.7359px;" id="elsts97efd4rl" class="animable"></path></g></g><g id="freepik--Pot--inject-2" class="animable" style="transform-origin: 54.1076px 112.794px;"><g id="freepik--Shadow--inject-2"><path d="M62.73,120c4.76,2.75,4.76,7.2,0,10s-12.47,2.74-17.23,0-4.76-7.2,0-10S58,117.26,62.73,120Z" style="opacity: 0.05; transform-origin: 54.115px 125px;" class="animable" id="elp3i5x18dyf"></path></g><path d="M46.37,126.94c-4.14-4.23-6.58-14.79-2.54-18.14H64.4c4,3.35,1.61,13.9-2.53,18.13l-.12.12a.93.93,0,0,1-.14.14c-.12.11-.24.23-.37.33l-.1.08c-.1.08-.2.16-.32.24a6,6,0,0,1-.53.34,13.64,13.64,0,0,1-12.35,0h0c-.18-.1-.36-.22-.54-.34l-.29-.22-.12-.1c-.13-.11-.25-.21-.36-.32l-.17-.16Z" style="fill: rgb(245, 245, 245); transform-origin: 54.1076px 119.229px;" id="el6bwr7wbpxv2" class="animable"></path><path d="M62.61,107.19c4.7,2.71,4.7,7.1,0,9.81s-12.3,2.71-17,0-4.69-7.1,0-9.81S57.92,104.48,62.61,107.19Z" style="fill: rgb(255, 255, 255); transform-origin: 54.1119px 112.095px;" id="elob1cizfmaje" class="animable"></path><path d="M59.29,109.11c2.85,1.65,2.85,4.32,0,6a11.42,11.42,0,0,1-10.34,0c-2.86-1.65-2.86-4.32,0-6A11.42,11.42,0,0,1,59.29,109.11Z" style="fill: rgb(235, 235, 235); transform-origin: 54.1162px 112.11px;" id="eld4f149h66im" class="animable"></path><path d="M49,111.94a11.48,11.48,0,0,1,10.34,0A4.87,4.87,0,0,1,61,113.51a4.87,4.87,0,0,1-1.71,1.57,11.42,11.42,0,0,1-10.34,0,4.7,4.7,0,0,1-1.71-1.57A4.7,4.7,0,0,1,49,111.94Z" style="fill: rgb(224, 224, 224); transform-origin: 54.12px 113.514px;" id="elggosgbl3d45" class="animable"></path><path d="M58.66,113.51a23.66,23.66,0,0,0,3.74-5c1.72-3.05,2-7.14,1.15-7.65S59,104.47,59,104.47a21.83,21.83,0,0,0,.38-5.22c-.15-2.72-.81-5.19-1.59-5.69S55.29,96.5,54.54,99s-1.19,4.53-1.19,4.53A38.4,38.4,0,0,0,52,97.79c-.91-2.58-1.73-3.16-2.37-2.91s-1.06,1.46-1.24,4.9a34.43,34.43,0,0,0,.15,4.92s-1.28-1.41-2.7-2.78-2.23-1.7-2.68-1.42-.57,2.62,1.85,7a24.26,24.26,0,0,0,4.57,6S52.93,115.67,58.66,113.51Z" style="fill: rgb(235, 235, 235); transform-origin: 53.4579px 103.989px;" id="eld44pm9lmuqe" class="animable"></path></g></g></g><g id="freepik--Shadows--inject-2" class="animable" style="transform-origin: 225.91px 337.925px;"><ellipse id="freepik--shadow--inject-2" cx="348.2" cy="297.85" rx="70.17" ry="40.51" style="fill: rgb(224, 224, 224); transform-origin: 348.2px 297.85px;" class="animable"></ellipse><polygon id="freepik--shadow--inject-2" points="255.31 294.41 185.95 254.35 272.15 204.57 341.5 244.63 255.31 294.41" style="fill: rgb(224, 224, 224); transform-origin: 263.725px 249.49px;" class="animable"></polygon><path id="freepik--shadow--inject-2" d="M138.19,420.87l-8.57-4.95a5.25,5.25,0,0,0-4.73,0l-26.3,15.16c-1.31.75-1.31,2,0,2.73l2,1.17a25.81,25.81,0,0,1-4,2.81c-6.29,3.64-14.67,5.64-23.61,5.64s-17.32-2-23.61-5.64c-6.11-3.52-9.47-8.14-9.47-13s3.36-9.48,9.47-13a36.68,36.68,0,0,1,6-2.75l.14-.05,1.75,1A5.2,5.2,0,0,0,62,410l26.31-15.19c1.3-.75,1.3-2,0-2.73l-8.58-4.95a5.23,5.23,0,0,0-4.72,0L48.72,402.3c-1.3.75-1.3,2,0,2.73l1.32.76a41.67,41.67,0,0,0-4.78,2.36c-7.62,4.39-11.81,10.3-11.81,16.64S37.64,437,45.26,441.44c7.43,4.29,17.28,6.65,27.74,6.65s20.31-2.36,27.74-6.65a32.57,32.57,0,0,0,5-3.5l1.46.84a5.22,5.22,0,0,0,4.73,0l26.3-15.19C139.5,422.85,139.5,421.63,138.19,420.87Z" style="fill: rgb(224, 224, 224); transform-origin: 86.3138px 417.329px;" class="animable"></path><path id="freepik--shadow--inject-2" d="M271,348.69a1,1,0,0,0,0-1.75L170.38,288.85a5,5,0,0,0-5,0l-111.17,64a1.12,1.12,0,0,0,0,1.94l101,58.31a3.9,3.9,0,0,0,3.92,0Z" style="fill: rgb(224, 224, 224); transform-origin: 162.583px 350.904px;" class="animable"></path><path id="freepik--shadow--inject-2" d="M167.52,419l90.57-52.28,11.16,6.45,4.16-6.52,42.32,8.88-1.4,2.23a5.06,5.06,0,0,0-.75,1.86,94.48,94.48,0,0,1,17.21,2A79.38,79.38,0,0,1,344,385.57a9.12,9.12,0,0,0,2.29-2.38l.68-1.08,45.78,9.57-37.24,59.18-9.38-2c-10.85,6.25-25.25,9.7-40.53,9.7a94.62,94.62,0,0,1-21.36-2.38l-26.15,15.1Z" style="fill: rgb(224, 224, 224); transform-origin: 280.135px 418.965px;" class="animable"></path></g><g id="freepik--Box--inject-2" class="animable" style="transform-origin: 263.73px 223.28px;"><g id="freepik--box--inject-2" class="animable" style="transform-origin: 263.73px 223.28px;"><polygon points="255.8 289.95 255.8 241.15 192.41 204.55 192.41 253.35 255.8 289.95" style="fill: #92E3A9; transform-origin: 224.105px 247.25px;" id="eloscmw648ec" class="animable"></polygon><g id="eloiu2puvo4bn"><polygon points="255.8 289.95 255.8 241.15 192.41 204.55 192.41 253.35 255.8 289.95" style="fill: rgb(255, 255, 255); opacity: 0.45; transform-origin: 224.105px 247.25px;" class="animable" id="ellqqb18eyc59"></polygon></g><polygon points="255.8 241.15 335.04 195.4 335.04 244.2 255.8 289.95 255.8 241.15" style="fill: #92E3A9; transform-origin: 295.42px 242.675px;" id="el5esiz714hsc" class="animable"></polygon><g id="elywipdlv57v8"><polygon points="255.8 241.15 335.04 195.4 335.04 244.2 255.8 289.95 255.8 241.15" style="fill: rgb(255, 255, 255); opacity: 0.3; transform-origin: 295.42px 242.675px;" class="animable" id="el97ov4gq658"></polygon></g><polygon points="255.8 241.15 190.54 203.45 271.65 156.61 336.92 194.31 255.8 241.15" style="fill: #92E3A9; transform-origin: 263.73px 198.88px;" id="elrcmg2o5kdxd" class="animable"></polygon><g id="el9vviw22qiwh"><polygon points="255.8 241.15 190.54 203.45 271.65 156.61 336.92 194.31 255.8 241.15" style="fill: rgb(255, 255, 255); opacity: 0.6; transform-origin: 263.73px 198.88px;" class="animable" id="el2ex50fsaqd"></polygon></g><polygon points="255.8 241.15 255.8 253.35 190.54 215.67 190.54 203.45 255.8 241.15" style="fill: #92E3A9; transform-origin: 223.17px 228.4px;" id="elxewdlerme9g" class="animable"></polygon><g id="els6bqhb4ow3"><polygon points="255.8 241.15 255.8 253.35 190.54 215.67 190.54 203.45 255.8 241.15" style="fill: rgb(255, 255, 255); opacity: 0.45; transform-origin: 223.17px 228.4px;" class="animable" id="elcdwst2v0es"></polygon></g><g id="elbp5w4ue20u8"><polygon points="255.8 253.35 192.41 216.75 192.41 219.44 255.8 256.03 255.8 253.35" style="opacity: 0.2; transform-origin: 224.105px 236.39px;" class="animable" id="eldzyh2yylbzm"></polygon></g><polygon points="336.92 194.31 255.8 241.15 255.8 253.35 336.92 206.52 336.92 194.31" style="fill: #92E3A9; transform-origin: 296.36px 223.83px;" id="el6lopz3zmyit" class="animable"></polygon><g id="el97onohrz846"><polygon points="336.92 194.31 255.8 241.15 255.8 253.35 336.92 206.52 336.92 194.31" style="fill: rgb(255, 255, 255); opacity: 0.3; transform-origin: 296.36px 223.83px;" class="animable" id="eljf71kme0vhc"></polygon></g><g id="elekf8rry0n3u"><polygon points="255.8 253.35 335.04 207.6 335.04 210.29 255.81 256.03 255.8 253.35" style="opacity: 0.2; transform-origin: 295.42px 231.815px;" class="animable" id="ely2v15sb84k"></polygon></g><path d="M234.94,248.57l-21.66-12.5c-.93-.54-1.69-.11-1.69,1v12.81a3.75,3.75,0,0,0,1.69,2.92l21.66,12.5c.93.54,1.69.1,1.69-1V251.49A3.75,3.75,0,0,0,234.94,248.57Z" style="fill: rgb(69, 90, 100); transform-origin: 224.11px 250.684px;" id="elenmap3o4ixo" class="animable"></path><path d="M233.55,250l-18.88-10.9c-.62-.36-1.13-.07-1.13.65v9.6a2.5,2.5,0,0,0,1.13,1.95l18.88,10.9c.62.36,1.13.07,1.13-.65V252A2.49,2.49,0,0,0,233.55,250Z" style="fill: rgb(245, 245, 245); transform-origin: 224.11px 250.65px;" id="elpgy92vbc5x" class="animable"></path><g id="elfg4789mc2vb"><g style="opacity: 0.5; transform-origin: 224.09px 250.672px;" class="animable" id="eli44x1gw82ak"><path d="M233,252.56a.27.27,0,0,0,.24-.14.29.29,0,0,0-.1-.38l-17.83-10.29a.27.27,0,0,0-.37.1.28.28,0,0,0,.1.38l17.82,10.29A.43.43,0,0,0,233,252.56Z" style="fill: rgb(69, 90, 100); transform-origin: 224.088px 247.137px;" id="elzfwf1rd31xh" class="animable"></path><path d="M233,254.91a.27.27,0,0,0,.24-.14.27.27,0,0,0-.1-.37l-17.83-10.29a.27.27,0,1,0-.27.47l17.82,10.29A.27.27,0,0,0,233,254.91Z" style="fill: rgb(69, 90, 100); transform-origin: 224.09px 249.492px;" id="elnn8bpplqzb" class="animable"></path><path d="M233,257.27a.27.27,0,0,0,.24-.14.27.27,0,0,0-.1-.37l-17.83-10.29a.26.26,0,0,0-.37.1.27.27,0,0,0,.1.37l17.82,10.29A.27.27,0,0,0,233,257.27Z" style="fill: rgb(69, 90, 100); transform-origin: 224.09px 251.85px;" id="el4gp0r20hv44" class="animable"></path><path d="M233,259.63a.27.27,0,0,0,.24-.14.29.29,0,0,0-.1-.38l-17.83-10.29a.27.27,0,0,0-.37.1.28.28,0,0,0,.1.38l17.82,10.29A.43.43,0,0,0,233,259.63Z" style="fill: rgb(69, 90, 100); transform-origin: 224.088px 254.207px;" id="elabvodx233b" class="animable"></path></g></g></g></g><g id="freepik--record-player--inject-2" class="animable" style="transform-origin: 151.945px 265.114px;"><g id="freepik--record-player--inject-2" class="animable" style="transform-origin: 151.945px 265.114px;"><polygon points="166.58 255.62 146.63 244.1 146.63 127.33 147.26 127.33 147.26 243.74 166.89 255.07 166.58 255.62" style="fill: #92E3A9; transform-origin: 156.76px 191.475px;" id="el4u82k57fkcf" class="animable"></polygon><g id="el69wi9j057a7"><rect x="28.1" y="275.45" width="127.38" height="0.62" style="fill: #92E3A9; transform-origin: 91.79px 275.76px; transform: rotate(-30.01deg);" class="animable" id="elwtg8hcyb01s"></rect></g><path d="M56.16,319.49V202.29l.13-.07L167,138.3V255.5l-.13.07Zm.52-116.9v116l109.79-63.4v-116Z" style="fill: #92E3A9; transform-origin: 111.58px 228.895px;" id="el00o9lhl5u9at" class="animable"></path><path d="M56.69,319.49,36.38,307.76V190.57l20.31,11.72Zm-19.79-12,19.26,11.13v-116L36.89,191.47Z" style="fill: #92E3A9; transform-origin: 46.535px 255.03px;" id="el517h36l7pus" class="animable"></path><path d="M56.41,202.74l-.13-.07L36.11,191l.39-.23L146.94,127l.14.08,20.17,11.65-.39.23ZM37.15,191l19.26,11.12,109.8-63.39-19.27-11.12Z" style="fill: #92E3A9; transform-origin: 101.68px 164.87px;" id="elg6sqyflrv48" class="animable"></path><path d="M120,171.42c-2.22,3.92-4.51,7.79-6.76,11.68l-6.89,11.62c-4.6,7.73-9.3,15.4-13.95,23.1s-9.43,15.33-14.22,23l-7.21,11.41c-2.44,3.78-4.85,7.58-7.33,11.34,2.22-3.92,4.51-7.79,6.76-11.69l6.89-11.61c4.6-7.73,9.3-15.4,13.95-23.11s9.43-15.32,14.22-22.94l7.21-11.41C115.08,179,117.49,175.18,120,171.42Z" style="fill: #92E3A9; transform-origin: 91.82px 217.495px;" id="elpyea7rmmkuk" class="animable"></path><path d="M122,194c-1.21,2.27-2.5,4.5-3.74,6.75l-3.86,6.67c-2.58,4.45-5.25,8.85-7.92,13.24s-5.39,8.75-8.18,13.07l-4.19,6.48c-1.43,2.14-2.83,4.29-4.3,6.4,1.21-2.27,2.49-4.5,3.74-6.75l3.86-6.67c2.58-4.45,5.24-8.85,7.91-13.24s5.4-8.75,8.19-13.07l4.18-6.48C119.08,198.26,120.48,196.1,122,194Z" style="fill: #92E3A9; transform-origin: 105.905px 220.305px;" id="el8tc3nfeopke" class="animable"></path><path d="M92.31,192.6c-1.21,2.28-2.49,4.5-3.74,6.75L84.71,206c-2.58,4.45-5.24,8.84-7.91,13.24s-5.4,8.75-8.19,13.07l-4.18,6.48c-1.44,2.13-2.84,4.29-4.31,6.4,1.21-2.27,2.49-4.5,3.74-6.75l3.86-6.68c2.58-4.45,5.25-8.84,7.92-13.23s5.39-8.75,8.18-13.07L88,199C89.44,196.87,90.84,194.72,92.31,192.6Z" style="fill: #92E3A9; transform-origin: 76.215px 218.895px;" id="el131qdn5967l" class="animable"></path><path d="M267.11,338.86a5.68,5.68,0,0,0-2.94-3.39,16.21,16.21,0,0,0-14.67,0,5.68,5.68,0,0,0-2.94,3.39c-.07.28-.45,3.43-.58,4.15a2.47,2.47,0,0,0,0,.44c0,1.61,1.06,3.22,3.19,4.45a17,17,0,0,0,15.41,0c2.13-1.23,3.2-2.84,3.2-4.45a2.58,2.58,0,0,0-.05-.44C267.56,342.29,267.18,339.14,267.11,338.86Z" style="fill: rgb(55, 71, 79); transform-origin: 256.875px 341.731px;" id="elh47akkg3kbo" class="animable"></path><path d="M249.5,343.94a16.21,16.21,0,0,0,14.67,0c2-1.17,3-2.7,3-4.24s-1-3.06-3-4.23a16.21,16.21,0,0,0-14.67,0c-2,1.17-3,2.7-3,4.23S247.47,342.77,249.5,343.94Z" style="fill: rgb(38, 50, 56); transform-origin: 256.835px 339.705px;" id="el2gocb2nqf1c" class="animable"></path><path d="M174.46,392.35a5.79,5.79,0,0,0-2.94-3.4,16.26,16.26,0,0,0-14.68,0,5.69,5.69,0,0,0-2.93,3.39c-.07.28-.45,3.43-.58,4.15a2.58,2.58,0,0,0-.05.44c0,1.61,1.07,3.22,3.19,4.45a17,17,0,0,0,15.42,0c2.13-1.23,3.19-2.84,3.19-4.45a2.58,2.58,0,0,0-.05-.44C174.9,395.78,174.53,392.63,174.46,392.35Z" style="fill: rgb(55, 71, 79); transform-origin: 164.18px 395.214px;" id="el6xrpkcpaq4u" class="animable"></path><path d="M156.84,397.43a16.23,16.23,0,0,0,14.68,0c2-1.17,3-2.7,3-4.24s-1-3.07-3-4.24a16.26,16.26,0,0,0-14.68,0c-2,1.17-3,2.7-3,4.23S154.82,396.26,156.84,397.43Z" style="fill: rgb(38, 50, 56); transform-origin: 164.18px 393.192px;" id="el4urhgiae9t3" class="animable"></path><path d="M173.85,285a5.68,5.68,0,0,0-2.94-3.39,16.21,16.21,0,0,0-14.67,0A5.68,5.68,0,0,0,153.3,285c-.07.28-.45,3.43-.58,4.15a2.68,2.68,0,0,0-.05.45c0,1.61,1.07,3.22,3.2,4.45a17.07,17.07,0,0,0,15.41,0c2.13-1.23,3.19-2.84,3.19-4.45a1.93,1.93,0,0,0-.05-.45C174.3,288.45,173.92,285.3,173.85,285Z" style="fill: rgb(55, 71, 79); transform-origin: 163.57px 287.872px;" id="elxcjagfnsz1" class="animable"></path><path d="M156.24,290.1a16.21,16.21,0,0,0,14.67,0c2-1.17,3-2.7,3-4.23s-1-3.07-3-4.24a16.21,16.21,0,0,0-14.67,0c-2,1.17-3,2.7-3,4.24S154.21,288.93,156.24,290.1Z" style="fill: rgb(38, 50, 56); transform-origin: 163.575px 285.865px;" id="ely4xht6bf7of" class="animable"></path><path d="M81.2,338.51a5.75,5.75,0,0,0-2.94-3.39,16.23,16.23,0,0,0-14.68,0,5.75,5.75,0,0,0-2.94,3.39c-.06.28-.44,3.43-.57,4.15a2.69,2.69,0,0,0,0,.44c0,1.62,1.06,3.23,3.19,4.45a17,17,0,0,0,15.42,0c2.13-1.22,3.19-2.84,3.19-4.45a2.69,2.69,0,0,0,0-.44C81.64,341.94,81.26,338.79,81.2,338.51Z" style="fill: rgb(55, 71, 79); transform-origin: 70.97px 341.382px;" id="eli6wm7vhyca" class="animable"></path><path d="M63.58,343.59a16.23,16.23,0,0,0,14.68,0c2-1.17,3-2.7,3-4.23s-1-3.07-3-4.24a16.23,16.23,0,0,0-14.68,0c-2,1.17-3,2.7-3,4.24S61.56,342.42,63.58,343.59Z" style="fill: rgb(38, 50, 56); transform-origin: 70.92px 339.355px;" id="el2camakvu6mq" class="animable"></path><polygon points="157.4 377.34 56.43 319.04 166.75 255.35 267.72 313.65 157.4 377.34" style="fill: rgb(69, 90, 100); transform-origin: 162.075px 316.345px;" id="el5yl6ezl4mck" class="animable"></polygon><polygon points="56.43 319.04 56.43 341.89 157.4 400.19 157.4 377.34 56.43 319.04" style="fill: rgb(38, 50, 56); transform-origin: 106.915px 359.615px;" id="el1ns4f7537ij" class="animable"></polygon><polygon points="267.72 313.65 267.72 336.5 157.4 400.19 157.4 377.34 267.72 313.65" style="fill: rgb(55, 71, 79); transform-origin: 212.56px 356.92px;" id="elqyd14nbj1m" class="animable"></polygon><path d="M227,345.43l10.32-6a.47.47,0,0,1,.43,0,.44.44,0,0,1,.21.38l0,5.37a.41.41,0,0,1-.21.36l-10.32,6.05a.42.42,0,0,1-.64-.37l0-5.47a.42.42,0,0,1,.06-.21A.43.43,0,0,1,227,345.43ZM237,345l0-4.39L227.59,346l0,4.48Z" style="fill: #92E3A9; transform-origin: 232.375px 345.515px;" id="elly8m5ac3o5e" class="animable"></path><path d="M246.74,334l10.31-5.95a.42.42,0,0,1,.43,0,.44.44,0,0,1,.21.37l0,5.37a.44.44,0,0,1-.21.37l-10.31,6a.42.42,0,0,1-.43,0,.44.44,0,0,1-.21-.37l0-5.47a.46.46,0,0,1,.05-.21A.49.49,0,0,1,246.74,334Zm10.06-.45,0-4.39-9.46,5.46,0,4.47Z" style="fill: #92E3A9; transform-origin: 252.11px 334.105px;" id="eldb4suzb0i2t" class="animable"></path><path d="M168.21,379.92h0L173,383l-2.55,4.43-5.06-2.53h0a1.38,1.38,0,0,1-.67-1.35,4.5,4.5,0,0,1,2.05-3.55A1.39,1.39,0,0,1,168.21,379.92Z" style="fill: #92E3A9; transform-origin: 168.855px 383.593px;" id="elong6p29911n" class="animable"></path><g id="elil3bitxw7lm"><path d="M168.21,379.92h0L173,383l-2.55,4.43-5.06-2.53h0a1.38,1.38,0,0,1-.67-1.35,4.5,4.5,0,0,1,2.05-3.55A1.39,1.39,0,0,1,168.21,379.92Z" style="opacity: 0.2; transform-origin: 168.855px 383.593px;" class="animable" id="elf6unybajmqh"></path></g><path d="M169.81,386.27c0,1.15.81,1.62,1.81,1a4,4,0,0,0,1.81-3.13c0-1.15-.81-1.62-1.81-1.05A4,4,0,0,0,169.81,386.27Z" style="fill: #92E3A9; transform-origin: 171.62px 385.196px;" id="el94kzds7onyl" class="animable"></path><path d="M176.84,374.92h0l4.74,3.13L179,382.47,174,379.94h0a1.38,1.38,0,0,1-.67-1.35,4.53,4.53,0,0,1,2-3.56A1.38,1.38,0,0,1,176.84,374.92Z" style="fill: #92E3A9; transform-origin: 177.45px 378.608px;" id="elzy3ggoeakxi" class="animable"></path><g id="el928pocqe0j"><path d="M176.84,374.92h0l4.74,3.13L179,382.47,174,379.94h0a1.38,1.38,0,0,1-.67-1.35,4.53,4.53,0,0,1,2-3.56A1.38,1.38,0,0,1,176.84,374.92Z" style="opacity: 0.2; transform-origin: 177.45px 378.608px;" class="animable" id="eln65vcgkqc4"></path></g><path d="M178.44,381.27c0,1.15.81,1.62,1.81,1a4,4,0,0,0,1.81-3.13c0-1.16-.81-1.62-1.81-1.05A4,4,0,0,0,178.44,381.27Z" style="fill: #92E3A9; transform-origin: 180.25px 380.195px;" id="elz2kusww9dc" class="animable"></path><path d="M185.47,369.91h0l4.74,3.13-2.55,4.43-5.06-2.53h0a1.39,1.39,0,0,1-.67-1.36,4.53,4.53,0,0,1,2-3.55A1.41,1.41,0,0,1,185.47,369.91Z" style="fill: #92E3A9; transform-origin: 186.065px 373.603px;" id="eletb1ifyiku9" class="animable"></path><g id="eldeavr93u28"><path d="M185.47,369.91h0l4.74,3.13-2.55,4.43-5.06-2.53h0a1.39,1.39,0,0,1-.67-1.36,4.53,4.53,0,0,1,2-3.55A1.41,1.41,0,0,1,185.47,369.91Z" style="opacity: 0.2; transform-origin: 186.065px 373.603px;" class="animable" id="el3mik53hdpsq"></path></g><path d="M187.07,376.27c0,1.15.81,1.62,1.81,1a4,4,0,0,0,1.81-3.13c0-1.16-.81-1.63-1.81-1.05A4,4,0,0,0,187.07,376.27Z" style="fill: #92E3A9; transform-origin: 188.88px 375.193px;" id="el2hxzpdvdvkx" class="animable"></path><path d="M194.1,364.91h0l4.74,3.13-2.55,4.43-5.06-2.53h0a1.39,1.39,0,0,1-.67-1.36,4.53,4.53,0,0,1,2.05-3.55A1.41,1.41,0,0,1,194.1,364.91Z" style="fill: #92E3A9; transform-origin: 194.695px 368.611px;" id="elzyfc1cqh77s" class="animable"></path><g id="elr9g31ngtr8f"><path d="M194.1,364.91h0l4.74,3.13-2.55,4.43-5.06-2.53h0a1.39,1.39,0,0,1-.67-1.36,4.53,4.53,0,0,1,2.05-3.55A1.41,1.41,0,0,1,194.1,364.91Z" style="opacity: 0.2; transform-origin: 194.695px 368.611px;" class="animable" id="elob2qjci5c5"></path></g><path d="M195.7,371.26c0,1.16.81,1.63,1.81,1.05a4,4,0,0,0,1.81-3.14c0-1.15-.81-1.62-1.81-1A4,4,0,0,0,195.7,371.26Z" style="fill: #92E3A9; transform-origin: 197.51px 370.227px;" id="eltje5z6dnhwc" class="animable"></path><path d="M202.73,359.91h0l4.74,3.13-2.56,4.43-5.06-2.53h0a1.4,1.4,0,0,1-.67-1.36,4.53,4.53,0,0,1,2.05-3.55A1.39,1.39,0,0,1,202.73,359.91Z" style="fill: #92E3A9; transform-origin: 203.32px 363.608px;" id="elnsfk7tt1kb" class="animable"></path><g id="elnyz577plfds"><path d="M202.73,359.91h0l4.74,3.13-2.56,4.43-5.06-2.53h0a1.4,1.4,0,0,1-.67-1.36,4.53,4.53,0,0,1,2.05-3.55A1.39,1.39,0,0,1,202.73,359.91Z" style="opacity: 0.2; transform-origin: 203.32px 363.608px;" class="animable" id="elxtlr9elt6j"></path></g><path d="M204.33,366.26c0,1.16.81,1.62,1.81,1.05a4,4,0,0,0,1.81-3.14c0-1.15-.81-1.62-1.81-1A4,4,0,0,0,204.33,366.26Z" style="fill: #92E3A9; transform-origin: 206.14px 365.225px;" id="elbus4wn5ak6" class="animable"></path><path d="M159.71,367.24c1.28-.74,1.28-1.93,0-2.67a5.08,5.08,0,0,0-4.62,0c-1.28.74-1.28,1.93,0,2.67A5.08,5.08,0,0,0,159.71,367.24Z" style="fill: #92E3A9; transform-origin: 157.4px 365.905px;" id="elzzzcz44vx6j" class="animable"></path><path d="M78.53,320.37c1.28-.73,1.28-1.93,0-2.67a5.11,5.11,0,0,0-4.63,0c-1.27.74-1.27,1.94,0,2.67A5.11,5.11,0,0,0,78.53,320.37Z" style="fill: #92E3A9; transform-origin: 76.2188px 319.035px;" id="el87j93ss01dc" class="animable"></path><polygon points="191.61 289.55 237.4 315.98 239.54 314.74 193.76 288.31 191.61 289.55" style="fill: rgb(38, 50, 56); transform-origin: 215.575px 302.145px;" id="el3gur2q7zqhe" class="animable"></polygon><polygon points="228.34 313.65 228.34 311.51 234.88 307.74 234.88 309.87 228.34 313.65" style="fill: #92E3A9; transform-origin: 231.61px 310.695px;" id="elfuqeis3futq" class="animable"></polygon><g id="els0mjh2pfp7"><polygon points="228.34 313.65 228.34 311.51 234.88 307.74 234.88 309.87 228.34 313.65" style="opacity: 0.15; transform-origin: 231.61px 310.695px;" class="animable" id="eld7b96gevuyb"></polygon></g><polygon points="225.06 309.63 228.34 311.51 234.88 307.74 231.61 305.85 225.06 309.63" style="fill: #92E3A9; transform-origin: 229.97px 308.68px;" id="elw9jzcc9k8x" class="animable"></polygon><polygon points="225.07 311.76 228.34 313.65 228.34 311.51 225.06 309.63 225.07 311.76" style="fill: #92E3A9; transform-origin: 226.7px 311.64px;" id="elsu72y5faqeb" class="animable"></polygon><g id="elmpwl9h1ms1h"><polygon points="225.07 311.76 228.34 313.65 228.34 311.51 225.06 309.63 225.07 311.76" style="opacity: 0.3; transform-origin: 226.7px 311.64px;" class="animable" id="elthl08sltmi8"></polygon></g><polygon points="193.76 288.31 193.76 290.79 191.61 289.55 193.76 288.31" id="elwskfz2cgg38" class="animable" style="transform-origin: 192.685px 289.55px;"></polygon><polygon points="198.15 285.77 243.94 312.2 246.08 310.97 200.3 284.53 198.15 285.77" style="fill: rgb(38, 50, 56); transform-origin: 222.115px 298.365px;" id="eles2brdap6w" class="animable"></polygon><polygon points="221.8 302.32 221.8 300.18 228.34 296.41 228.34 298.55 221.8 302.32" style="fill: #92E3A9; transform-origin: 225.07px 299.365px;" id="eld3uv3lm1c55" class="animable"></polygon><g id="elxodujqtj8zg"><polygon points="221.8 302.32 221.8 300.18 228.34 296.41 228.34 298.55 221.8 302.32" style="opacity: 0.15; transform-origin: 225.07px 299.365px;" class="animable" id="elspazntuvz0n"></polygon></g><polygon points="218.52 298.3 221.8 300.18 228.34 296.41 225.07 294.52 218.52 298.3" style="fill: #92E3A9; transform-origin: 223.43px 297.35px;" id="elia80s3tgwsg" class="animable"></polygon><polygon points="218.53 300.43 221.8 302.32 221.8 300.18 218.52 298.3 218.53 300.43" style="fill: #92E3A9; transform-origin: 220.16px 300.31px;" id="elb9dz7rcva" class="animable"></polygon><g id="elx8fe3ml6o0h"><polygon points="218.53 300.43 221.8 302.32 221.8 300.18 218.52 298.3 218.53 300.43" style="opacity: 0.3; transform-origin: 220.16px 300.31px;" class="animable" id="elw9dhepf41jj"></polygon></g><polygon points="200.3 284.53 200.3 287.01 198.15 285.77 200.3 284.53" id="el1g5bkgc37kr" class="animable" style="transform-origin: 199.225px 285.77px;"></polygon><path d="M137.62,374a.43.43,0,0,0,.21-.8L91.65,346.5a.42.42,0,0,0-.58.16.42.42,0,0,0,.15.58L137.4,373.9A.43.43,0,0,0,137.62,374Z" style="fill: #92E3A9; transform-origin: 114.526px 360.221px;" id="elgsynzvqobbw" class="animable"></path><path d="M137.62,377.77a.43.43,0,0,0,.37-.21.44.44,0,0,0-.16-.58L91.65,350.31a.44.44,0,0,0-.58.16.42.42,0,0,0,.15.58l46.18,26.67A.54.54,0,0,0,137.62,377.77Z" style="fill: #92E3A9; transform-origin: 114.525px 364.015px;" id="elkt8m8yl94mc" class="animable"></path><path d="M137.62,381.59a.43.43,0,0,0,.21-.8L91.65,354.13a.42.42,0,0,0-.58.15.43.43,0,0,0,.15.59l46.18,26.66A.43.43,0,0,0,137.62,381.59Z" style="fill: #92E3A9; transform-origin: 114.525px 367.83px;" id="el56ewmxjivnb" class="animable"></path><path d="M113.09,347.67c22.66,13.08,59.41,13.08,82.08,0s22.67-34.31,0-47.4-59.42-13.08-82.09,0S90.42,334.58,113.09,347.67Z" style="fill: #92E3A9; transform-origin: 154.127px 323.968px;" id="el39pxstsn60h" class="animable"></path><g id="elwwcdyk6w6i"><g style="opacity: 0.15; transform-origin: 187.39px 338.93px;" class="animable" id="ela2iednqmobl"><path d="M185.79,328.42,171.36,336,176,355a71,71,0,0,0,18.47-7Z" style="fill: rgb(255, 255, 255); transform-origin: 182.915px 341.71px;" id="elynapf0ariwm" class="animable"></path><path d="M193.05,322.86l-3.92,1.61,9.29,21.12a41,41,0,0,0,5-4Z" style="fill: rgb(255, 255, 255); transform-origin: 196.275px 334.225px;" id="eluldcgjp5t0h" class="animable"></path></g></g><path d="M115.91,339.37c21.11,12.19,55.33,12.19,76.44,0s21.11-31.95,0-44.14-55.34-12.18-76.44,0S94.8,327.18,115.91,339.37Z" style="fill: rgb(38, 50, 56); transform-origin: 154.132px 317.302px;" id="elq18kazce0q" class="animable"></path><path d="M118.34,337.16c19.76,11,51.81,11,71.58,0s19.77-28.75,0-39.72-51.82-11-71.59,0S98.57,326.19,118.34,337.16Z" style="fill: rgb(55, 71, 79); transform-origin: 154.127px 317.306px;" id="el2wg761xrki" class="animable"></path><path d="M111.33,332.27l42.8-15L107.32,328A27.92,27.92,0,0,0,111.33,332.27Z" style="fill: rgb(38, 50, 56); transform-origin: 130.725px 324.77px;" id="elo9poj647e5q" class="animable"></path><path d="M166.12,344.56l-12-27.26,3.58,28C160.54,345.18,163.35,344.93,166.12,344.56Z" style="fill: rgb(38, 50, 56); transform-origin: 160.12px 331.3px;" id="eljohuo317usn" class="animable"></path><path d="M204.57,319.34l-50.44-2,49.05,6.82A17,17,0,0,0,204.57,319.34Z" style="fill: rgb(38, 50, 56); transform-origin: 179.35px 320.75px;" id="elvrh6ep5kris" class="animable"></path><path d="M173,291.23,154.13,317.3l26.46-23.91A69.93,69.93,0,0,0,173,291.23Z" style="fill: rgb(38, 50, 56); transform-origin: 167.36px 304.265px;" id="el4s3bt7wgxrj" class="animable"></path><path d="M118.33,297.44c-1,.53-1.81,1.09-2.67,1.64l38.47,18.22-32.35-21.59C120.6,296.26,119.44,296.83,118.33,297.44Z" style="fill: rgb(38, 50, 56); transform-origin: 134.895px 306.505px;" id="elpvwja87kw3j" class="animable"></path><path d="M141.94,324.34c6.73,3.88,17.64,3.88,24.37,0s6.73-10.19,0-14.07-17.64-3.89-24.37,0S135.21,320.45,141.94,324.34Z" style="fill: #92E3A9; transform-origin: 154.125px 317.303px;" id="el5f00zk2hpih" class="animable"></path><path d="M145.92,322c4.53,2.62,11.88,2.61,16.41,0s4.54-6.86,0-9.48-11.88-2.61-16.41,0S141.39,319.42,145.92,322Z" style="fill: rgb(38, 50, 56); transform-origin: 154.127px 317.26px;" id="elh5qbqf66oi" class="animable"></path><path d="M150.71,319.28a7.56,7.56,0,0,0,6.84,0c1.89-1.09,1.89-2.86,0-4a7.56,7.56,0,0,0-6.84,0C148.82,316.42,148.82,318.19,150.71,319.28Z" style="fill: #92E3A9; transform-origin: 154.13px 317.28px;" id="elihgcvzjl2qn" class="animable"></path><path d="M154.19,281.92c6.95,4,18.23,4,25.18,0s7-10.52,0-14.54-18.23-4-25.18,0S147.23,277.91,154.19,281.92Z" style="fill: #92E3A9; transform-origin: 166.788px 274.646px;" id="el0wnqxsowh6mh" class="animable"></path><path d="M158.06,279.16c4.82,2.78,12.62,2.78,17.44,0s4.81-7.28,0-10.06-12.62-2.78-17.44,0S153.25,276.38,158.06,279.16Z" style="fill: #92E3A9; transform-origin: 166.78px 274.13px;" id="elmjttp9ovsg" class="animable"></path><g id="el598wqbdavq4"><path d="M166.78,274l-17.05,3.67h0a11.19,11.19,0,0,0,4.46,4.28,19.11,19.11,0,0,0,2.81,1.33Z" style="opacity: 0.1; transform-origin: 158.255px 278.64px;" class="animable" id="elxf7vfvh7ih"></path></g><g id="el1g7h84cufpt"><path d="M166.78,264.37a25.68,25.68,0,0,0-12.59,3c-4.81,2.78-6.29,6.74-4.46,10.26L166.78,274Z" style="opacity: 0.2; transform-origin: 157.876px 270.997px;" class="animable" id="elh3k2xz0p3ro"></path></g><g id="elm5gt0pbrqq"><g style="opacity: 0.3; transform-origin: 166.78px 274.131px;" class="animable" id="el8w2163azjxa"><path d="M166.78,281.5a18.07,18.07,0,0,1-8.85-2.11h0c-2.41-1.39-3.74-3.26-3.74-5.26s1.33-3.86,3.74-5.26c4.88-2.82,12.82-2.81,17.7,0,2.41,1.4,3.74,3.26,3.74,5.26s-1.33,3.87-3.74,5.26A18.1,18.1,0,0,1,166.78,281.5Zm-8.59-2.56c4.74,2.73,12.44,2.73,17.18,0,2.24-1.3,3.48-3,3.48-4.81s-1.24-3.51-3.48-4.81c-4.74-2.73-12.44-2.73-17.18,0-2.24,1.3-3.48,3-3.48,4.81s1.24,3.51,3.48,4.81Z" id="el7nvrlahzos9" class="animable" style="transform-origin: 166.78px 274.131px;"></path></g></g><path d="M170.09,257a3.28,3.28,0,0,0-6.49,0v3.23a3.28,3.28,0,0,0,6.49,0Z" style="fill: #92E3A9; transform-origin: 166.845px 258.615px;" id="el0ic4xoe3vm6d" class="animable"></path><g id="eldauj12hsbnw"><path d="M170.09,260.27a3.28,3.28,0,1,1-3.25-2.81A3.06,3.06,0,0,1,170.09,260.27Z" style="opacity: 0.15; transform-origin: 166.844px 260.737px;" class="animable" id="elqqy7kdit84n"></path></g><path d="M169.19,261.09a2.37,2.37,0,0,0-4.69,0v6.12a2.37,2.37,0,0,0,4.69,0Z" style="fill: #92E3A9; transform-origin: 166.845px 264.15px;" id="el93i8jrdz0x4" class="animable"></path><g id="eli96axpmmfs"><path d="M169.19,267.21a2.37,2.37,0,1,1-2.35-2A2.2,2.2,0,0,1,169.19,267.21Z" style="opacity: 0.15; transform-origin: 166.849px 267.577px;" class="animable" id="ellzc5qrzzrzr"></path></g><path d="M161.77,273.3h0l.59-7.39h8.86l.59,7.35h0a2.39,2.39,0,0,1-1.45,2.19,7.86,7.86,0,0,1-7.1,0A2.45,2.45,0,0,1,161.77,273.3Z" style="fill: #92E3A9; transform-origin: 166.79px 271.104px;" id="elyoiwujsmpdh" class="animable"></path><g id="elvdefepma33f"><path d="M161.77,273.3h0l.59-7.39h8.86l.59,7.35h0a2.39,2.39,0,0,1-1.45,2.19,7.86,7.86,0,0,1-7.1,0A2.45,2.45,0,0,1,161.77,273.3Z" style="opacity: 0.1; transform-origin: 166.79px 271.104px;" class="animable" id="el64m7ou76rt5"></path></g><path d="M169.92,267.83c1.73-1,1.73-2.62,0-3.62a7,7,0,0,0-6.28,0c-1.73,1-1.73,2.62,0,3.62A7,7,0,0,0,169.92,267.83Z" style="fill: #92E3A9; transform-origin: 166.78px 266.02px;" id="elpvvqo6i3zv" class="animable"></path><g id="el2e2hwhaytbf"><path d="M169.92,267.83c1.73-1,1.73-2.62,0-3.62a7,7,0,0,0-6.28,0c-1.73,1-1.73,2.62,0,3.62A7,7,0,0,0,169.92,267.83Z" style="fill: rgb(255, 255, 255); opacity: 0.2; transform-origin: 166.78px 266.02px;" class="animable" id="elda53w9fvd8s"></path></g><path d="M169.19,272.86a2.37,2.37,0,0,0-4.69,0v3.05a2.37,2.37,0,0,0,4.69,0Z" style="fill: #92E3A9; transform-origin: 166.845px 274.385px;" id="el78aieabfntv" class="animable"></path><g id="ele8wpl7187r"><path d="M169.19,275.91a2.37,2.37,0,1,1-2.35-2A2.21,2.21,0,0,1,169.19,275.91Z" style="opacity: 0.15; transform-origin: 166.849px 276.277px;" class="animable" id="el429wwaepaqb"></path></g><path d="M189.88,302.42l-.28-.28c-1.44-1.44-5.42-5-9.62-8.75-2.53-2.26-5.07-4.52-7-6.26-4.68-4.27-4.68-5.83-4.68-10.48a1.5,1.5,0,0,0-3,0h0c0,5.35.22,7.72,5.64,12.66,1.92,1.75,4.47,4,7,6.29,4,3.56,8.11,7.25,9.5,8.63l.28.29c2.07,2.06,3.86,3.83,3.86,9.91v9.68h3v-9.68C194.61,307.12,192.21,304.73,189.88,302.42Z" style="fill: rgb(250, 250, 250); transform-origin: 179.94px 299.63px;" id="elpwouq4uj7lo" class="animable"></path><path d="M195.49,319.55a2.36,2.36,0,0,0-4.68,0v7.11a2.36,2.36,0,0,0,4.68,0Z" style="fill: #92E3A9; transform-origin: 193.15px 323.105px;" id="elvy85yufbz3j" class="animable"></path><g id="eldhvh0pyz5q9"><path d="M195.49,326.66a2.36,2.36,0,1,1-2.34-2A2.2,2.2,0,0,1,195.49,326.66Z" style="opacity: 0.15; transform-origin: 193.158px 327.017px;" class="animable" id="elbua44hkh9yd"></path></g></g></g><g id="freepik--Disks--inject-2" class="animable" style="transform-origin: 280.865px 413.87px;"><g id="freepik--Discs--inject-2" class="animable" style="transform-origin: 280.865px 413.87px;"><ellipse cx="258.09" cy="415.21" rx="56.69" ry="32.73" style="fill: rgb(69, 90, 100); transform-origin: 258.09px 415.21px;" id="elocv7cs8f95e" class="animable"></ellipse><path d="M345,415.21l-86.89,50.16-86.9-50.16,86.9-50.16,29,16.72c-7.29,4.2-7.29,11,0,15.23s19.09,4.2,26.37,0Z" style="fill: rgb(55, 71, 79); transform-origin: 258.105px 415.21px;" id="elq2c9npb9m4" class="animable"></path><ellipse cx="311.81" cy="407.81" rx="56.69" ry="32.73" style="fill: rgb(69, 90, 100); transform-origin: 311.81px 407.81px;" id="elz7rbaz4mpzq" class="animable"></ellipse><path d="M390.52,386.56l-41.9,66.69L233.1,429.06,275,362.37l38.48,8.07C310,376,315,382.2,324.68,384.24s20.37-.87,23.89-6.45Z" style="fill: #92E3A9; transform-origin: 311.81px 407.81px;" id="elqnno5ocks68" class="animable"></path><path d="M268.21,440.83c21.91,12.65,57.44,12.65,79.35,0s21.91-33.16,0-45.81-57.43-12.65-79.34,0S246.3,428.18,268.21,440.83Z" style="fill: rgb(55, 71, 79); transform-origin: 307.887px 417.925px;" id="elu2h9lsnqm1" class="animable"></path><path d="M270.73,438.53c20.52,11.39,53.79,11.39,74.31,0s20.51-29.84,0-41.23-53.78-11.38-74.3,0S250.21,427.15,270.73,438.53Z" style="fill: rgb(69, 90, 100); transform-origin: 307.886px 417.917px;" id="el5gtrror7a5u" class="animable"></path><path d="M263.46,433.46l44.42-15.54L259.29,429A29.11,29.11,0,0,0,263.46,433.46Z" style="fill: rgb(55, 71, 79); transform-origin: 283.585px 425.69px;" id="eliuuhkxddkhl" class="animable"></path><path d="M320.33,446.21l-12.45-28.29L311.6,447C314.53,446.86,317.45,446.6,320.33,446.21Z" style="fill: rgb(55, 71, 79); transform-origin: 314.105px 432.46px;" id="eljhrqmpvcaa" class="animable"></path><path d="M360.24,420l-52.36-2.11L358.8,425A17.9,17.9,0,0,0,360.24,420Z" style="fill: rgb(55, 71, 79); transform-origin: 334.06px 421.445px;" id="el7aa0tup5xoq" class="animable"></path><path d="M327.44,390.86l-19.56,27.06,27.47-24.82A73,73,0,0,0,327.44,390.86Z" style="fill: rgb(55, 71, 79); transform-origin: 321.615px 404.39px;" id="elq9omjaqdia" class="animable"></path><path d="M270.73,397.3c-1,.55-1.89,1.13-2.78,1.71l39.93,18.91L274.3,395.51C273.08,396.08,271.88,396.67,270.73,397.3Z" style="fill: rgb(55, 71, 79); transform-origin: 287.915px 406.715px;" id="el17huvpbdphp" class="animable"></path><path d="M295.23,425.22c7,4,18.31,4,25.3,0s7-10.57,0-14.6-18.31-4-25.3,0S288.25,421.19,295.23,425.22Z" style="fill: #92E3A9; transform-origin: 307.884px 417.914px;" id="elgooi6oywng7" class="animable"></path><path d="M299.36,422.84c4.71,2.71,12.34,2.71,17,0s4.7-7.12,0-9.84-12.33-2.72-17,0S294.66,420.12,299.36,422.84Z" style="fill: rgb(38, 50, 56); transform-origin: 307.858px 417.916px;" id="elzj5yw7yl9eg" class="animable"></path><path d="M304.33,420a7.86,7.86,0,0,0,7.1,0c2-1.13,2-3,0-4.1a7.86,7.86,0,0,0-7.1,0C302.37,417,302.37,418.84,304.33,420Z" style="fill: #92E3A9; transform-origin: 307.895px 417.95px;" id="elpibgzcoxopd" class="animable"></path></g></g><g id="freepik--Headphones--inject-2" class="animable" style="transform-origin: 87.1377px 407.504px;"><g id="freepik--headphones--inject-2" class="animable" style="transform-origin: 87.1377px 407.504px;"><path d="M69.8,397.38l.27.2.23.14a2.69,2.69,0,0,0,.29.16l.24.11.31.12.27.08.33.08.27.05.35,0h.76l.25,0,.23,0,.15,0,.13,0,.29-.06.25-.05.46-.13.31-.1.17-.06.18-.07.45-.2.22-.09.08,0c.25-.12.49-.25.74-.39A15.35,15.35,0,0,0,79.77,395a21.87,21.87,0,0,0,6.62-12.73,15,15,0,0,0,.11-1.61c0-.08,0-.15,0-.22s0-.24,0-.36,0-.19,0-.28l0-.29,0-.29a2.17,2.17,0,0,0,0-.25c0-.1,0-.19,0-.29s0-.15,0-.23l-.06-.27a2.17,2.17,0,0,0-.07-.24l-.06-.24c0-.11-.07-.21-.11-.31s0-.1,0-.14l-.05-.12L84,376.05a9.33,9.33,0,0,1,.62,3.53c0,6-4.24,13.38-9.47,16.4a7.35,7.35,0,0,1-5.65,1.1l.13.14Z" style="fill: rgb(38, 50, 56); transform-origin: 78.0018px 387.185px;" id="elde1q1h49fn" class="animable"></path><path d="M67.19,396.93a4.91,4.91,0,0,0,.75.54l1.91,1.11h0a5.71,5.71,0,0,1-2-2Z" style="fill: rgb(55, 71, 79); transform-origin: 68.52px 397.58px;" id="elcnpxh68ub2r" class="animable"></path><path d="M85.93,377.28s0,.09,0,.14.07.2.11.31l.06.24a.75.75,0,0,1,0,.16s0,.05,0,.08l.06.27c0,.08,0,.15,0,.23s0,.19,0,.29a2.17,2.17,0,0,1,0,.25l0,.29,0,.29c0,.09,0,.18,0,.28s0,.24,0,.37,0,.13,0,.21a13.89,13.89,0,0,1-.1,1.55,18.6,18.6,0,0,1-1,4.32A22.28,22.28,0,0,1,83.72,390a21.36,21.36,0,0,1-3.88,5,.46.46,0,0,0-.07.07,15.77,15.77,0,0,1-2.74,2l-.68.36-.1.05-.07,0c-.19.1-.39.18-.58.26l-.12,0-.19.07L75,398l-.29.1-.31.07-.11,0h0l-.25.06-.31.05-.39,0-.27,0h-.4l-.25,0h-.3l-.14,0-.12,0-.23-.05-.07,0-.28-.07h0l-.12-.05-.31-.12-.24-.11a2.69,2.69,0,0,1-.29-.16l-.23-.14-.27-.2-.21-.16-.14-.14-.11-.11-.18-.19c-.08-.09-.15-.19-.23-.29s-.11-.14-.15-.21a1.32,1.32,0,0,1-.12-.2l-.82.48a5.71,5.71,0,0,0,2,2h0l.37.19.06,0a5.77,5.77,0,0,0,1.15.39l.13,0,.38.06h.11c.22,0,.44,0,.66,0H73l.31,0,.33,0,.32,0,.5-.09.25-.06.43-.12.21-.07c.21-.07.42-.14.63-.23l.16-.06.53-.24.19-.09c.22-.11.45-.23.67-.36a17.11,17.11,0,0,0,3.87-3.14,22.45,22.45,0,0,0,1.69-2c.26-.36.52-.73.76-1.11a23,23,0,0,0,1.92-3.55,18.7,18.7,0,0,0,1.7-7.39,11.31,11.31,0,0,0-.33-2.82l-1.23-.71Z" style="fill: rgb(69, 90, 100); transform-origin: 77.6652px 388.18px;" id="eljzqe5vb72l" class="animable"></path><path d="M72.83,373.71c-4.78,2.75-8.64,9.45-8.64,15,0,2.76,1,4.7,2.54,5.6l4.14,2.39c1.57.92,3.73.79,6.13-.59,4.77-2.76,8.64-9.46,8.64-15,0-2.76-1-4.7-2.54-5.6l-4.17-2.41C77.37,372.2,75.21,372.33,72.83,373.71Z" style="fill: #92E3A9; transform-origin: 74.915px 384.908px;" id="ellc6b46sttaq" class="animable"></path><g id="elhvtodk38g4o"><path d="M72.83,373.71c-4.78,2.75-8.64,9.45-8.64,15,0,2.76,1,4.7,2.54,5.6l4.14,2.39c1.57.92,3.73.79,6.13-.59,4.77-2.76,8.64-9.46,8.64-15,0-2.76-1-4.7-2.54-5.6l-4.17-2.41C77.37,372.2,75.21,372.33,72.83,373.71Z" style="opacity: 0.3; transform-origin: 74.915px 384.908px;" class="animable" id="eln4sli4x8hl8"></path></g><path d="M68.36,391.09c0-5.51,3.86-12.21,8.64-15s8.64-.52,8.64,5-3.87,12.21-8.64,15S68.36,396.6,68.36,391.09Z" style="fill: #92E3A9; transform-origin: 77px 386.089px;" id="elgzb4hapqgc8" class="animable"></path><path d="M85.74,376.83l0,0c-.06-.13-.13-.26-.2-.38l0-.06a4.65,4.65,0,0,0-.34-.52v0c-.11-.14-.22-.27-.34-.4l-.15-.16a4,4,0,0,0-.31-.27l-.25-.19L84,374.7a4.73,4.73,0,0,0-1.27-.58A5.69,5.69,0,0,1,84,376.05l1.92,1.11Z" style="fill: rgb(38, 50, 56); transform-origin: 84.325px 375.64px;" id="el5n8eb4oe7nl" class="animable"></path><path d="M65.78,389.89A3.07,3.07,0,0,0,67,388.14c1.22-5.46,5-11.14,9.54-13.74,3.28-1.89,6.41-1.87,8.48-.06h0a4.08,4.08,0,0,0-.85-.61l-1.91-1.11c-2-1.17-4.78-1-7.64.67-4.51,2.6-8.32,8.28-9.54,13.74a3,3,0,0,1-1.24,1.75l-6.64,3.83,1.92,1.11v0Z" style="fill: rgb(55, 71, 79); transform-origin: 71.11px 382.793px;" id="eludwowiysl8" class="animable"></path><path d="M67,388.14a3.07,3.07,0,0,1-1.24,1.75l-6.64,3.83v1.09l.94-.54,6.57-3.79a2.47,2.47,0,0,0,.27-.21l.07-.06a3.07,3.07,0,0,0,.25-.26,4.07,4.07,0,0,0,.33-.48l.06-.12a3.89,3.89,0,0,0,.16-.38c0-.09,0-.17.07-.25h0c0-.3.12-.59.2-.89l.06-.24c.07-.26.14-.52.22-.78a.56.56,0,0,0,0-.12c.09-.29.19-.59.3-.88l.09-.23c.09-.24.19-.49.29-.73l.07-.18c.13-.28.26-.57.4-.86l.1-.2c.11-.23.23-.47.36-.7l.1-.2c.16-.28.31-.55.48-.82,0-.06.07-.11.1-.16.14-.23.28-.46.43-.68l.14-.2c.18-.27.36-.52.55-.78a.86.86,0,0,0,.07-.1l.52-.66c.05-.06.1-.13.16-.19.2-.24.4-.48.62-.71s.42-.46.64-.67a1.85,1.85,0,0,1,.14-.14c.22-.21.44-.42.66-.61l.11-.1c.2-.18.41-.35.62-.51l.12-.09c.22-.18.46-.35.69-.51l.16-.1c.24-.16.48-.32.73-.46a8.6,8.6,0,0,1,4.1-1.29,5.36,5.36,0,0,1,.81,0c.13,0,.26,0,.38.06l.37.09a4.53,4.53,0,0,1,1.26.58l.13.09.25.19.29.25,0,0,.15.16.09.1a2.48,2.48,0,0,1,.25.3v0a4.65,4.65,0,0,1,.34.52l0,0,0,0a.59.59,0,0,1,0,.08,2.85,2.85,0,0,1,.16.3l0,0c.05.11.1.22.14.33l1.23.71a7.81,7.81,0,0,0-.79-2l-.15-.25-.21-.31-.13-.17c-.09-.11-.17-.22-.26-.32a.93.93,0,0,0-.14-.14l-.05-.06-.27-.26-.07-.06c-2.07-1.81-5.2-1.83-8.48.06C72.05,377,68.24,382.68,67,388.14Z" style="fill: rgb(69, 90, 100); transform-origin: 73.02px 383.786px;" id="el9plzdl38iqo" class="animable"></path><path d="M67.58,393.84l0,0-.06,0-1.92-1.1a.82.82,0,0,0-.84,0l-7.5,4.34,1.92,1.1,7.51-4.33A.79.79,0,0,1,67.58,393.84Z" style="fill: rgb(55, 71, 79); transform-origin: 62.42px 395.402px;" id="el72d5r088s8u" class="animable"></path><path d="M67.73,396.4a7.93,7.93,0,0,1-.57-1.25.37.37,0,0,0-.55-.22l-.75.44a6,6,0,0,0,1.33,1.56l.65-.37Z" style="fill: rgb(55, 71, 79); transform-origin: 66.85px 395.903px;" id="elrpgdqww3zk9" class="animable"></path><path d="M68.44,395.72c-.11-.2-.2-.41-.29-.62s-.15-.43-.22-.65c0,0,0,0,0,0v0h0a1,1,0,0,0-.08-.21v0l-.09-.16,0,0-.12-.12h0a.79.79,0,0,0-.93,0l-7.51,4.33h0v1.1l.95-.55,5.78-3.33.75-.44a.37.37,0,0,1,.55.22,7.93,7.93,0,0,0,.57,1.25l.11.16.82-.48c0-.05-.07-.11-.11-.17A1.18,1.18,0,0,1,68.44,395.72Z" style="fill: rgb(69, 90, 100); transform-origin: 63.965px 396.599px;" id="el5kctfg5ons3" class="animable"></path><path d="M77.81,371.86C70.75,375.93,65,385.83,65,394c0,4.06,1.43,6.92,3.73,8.25l3.86,2.23c2.31,1.33,5.49,1.14,9-.89,7-4.07,12.76-14,12.76-22.12,0-4.06-1.42-6.92-3.73-8.25L86.83,371C84.52,369.63,81.33,369.82,77.81,371.86Z" style="fill: #92E3A9; transform-origin: 79.675px 387.724px;" id="elttbuyijn25" class="animable"></path><g id="el2medd11yylr"><path d="M68.88,396.19c0-8.15,5.71-18.05,12.77-22.12s12.76-.77,12.76,7.37-5.71,18.05-12.76,22.12S68.88,404.33,68.88,396.19Z" style="opacity: 0.1; transform-origin: 81.645px 388.815px;" class="animable" id="elw4uaej58evr"></path></g><path d="M81.64,374.07c-7,4.07-12.76,14-12.76,22.11,0,4.07,1.43,6.93,3.74,8.27.32.18,1.6.91,1.91,1.1,2.31,1.34,5.51,1.15,9-.89,7.06-4.07,12.77-14,12.77-22.11,0-4.07-1.43-6.93-3.74-8.27l-1.92-1.1C88.36,371.84,85.17,372,81.64,374.07Z" style="fill: rgb(240, 240, 240); transform-origin: 82.59px 389.36px;" id="elakf8pujcv7" class="animable"></path><path d="M70.8,397.29c0-8.14,5.71-18,12.76-22.11s12.77-.77,12.77,7.37-5.71,18-12.77,22.11S70.8,405.43,70.8,397.29Z" style="fill: rgb(224, 224, 224); transform-origin: 83.565px 389.92px;" id="eltlrlv46ne3" class="animable"></path><path d="M83.1,374.36c-7.3,4.22-13.24,14.5-13.24,22.93a12.51,12.51,0,0,0,1.46,6.29,7.57,7.57,0,0,0,2.76,2.8c.64.36,3.2,1.86,3.86,2.23,2.64,1.51,6.22,1.24,9.94-.91,7.3-4.21,13.24-14.5,13.24-22.93a12.36,12.36,0,0,0-1.47-6.28,7.43,7.43,0,0,0-2.77-2.82l-3.81-2.2C90.42,372,86.84,372.2,83.1,374.36Z" style="fill: rgb(69, 90, 100); transform-origin: 85.4902px 391.043px;" id="elw8bdyq6nn78" class="animable"></path><path d="M99.65,378.49a12.36,12.36,0,0,1,1.47,6.28c0,8.43-5.94,18.72-13.24,22.93-5.29,3.06-10.28,2.31-12.72-1.91a12.47,12.47,0,0,1-1.46-6.28c0-8.43,5.94-18.72,13.24-22.93C92.23,373.52,97.22,374.27,99.65,378.49Z" style="fill: rgb(55, 71, 79); transform-origin: 87.4102px 392.14px;" id="elgcy2bywcec" class="animable"></path><path d="M93.52,385.32a6.18,6.18,0,0,1,.74,3.14,14.64,14.64,0,0,1-6.61,11.45c-2.65,1.53-5.14,1.15-6.36-1a6.29,6.29,0,0,1-.73-3.14,14.64,14.64,0,0,1,6.61-11.45C89.82,382.84,92.31,383.22,93.52,385.32Z" style="fill: rgb(38, 50, 56); transform-origin: 87.4102px 392.133px;" id="elff79ya26dui" class="animable"></path><path d="M114.08,392.26c-7.3,4.21-13.24,14.5-13.24,22.93a12.39,12.39,0,0,0,1.47,6.28,7.4,7.4,0,0,0,2.75,2.8l3.86,2.24c2.64,1.5,6.22,1.24,9.94-.92,7.3-4.21,13.24-14.5,13.24-22.93a12.39,12.39,0,0,0-1.47-6.28,7.27,7.27,0,0,0-2.77-2.81c-.64-.36-3.17-1.84-3.81-2.21C121.4,389.84,117.82,390.1,114.08,392.26Z" style="fill: rgb(69, 90, 100); transform-origin: 116.47px 408.927px;" id="elquv40u9oin" class="animable"></path><path d="M130.63,396.38a12.39,12.39,0,0,1,1.47,6.28c0,8.43-5.94,18.72-13.24,22.93-5.29,3.06-10.28,2.31-12.71-1.9a12.4,12.4,0,0,1-1.47-6.29c0-8.43,5.94-18.71,13.24-22.93C123.21,391.42,128.2,392.17,130.63,396.38Z" style="fill: rgb(55, 71, 79); transform-origin: 118.39px 410.034px;" id="elfu7jmb1gt9f" class="animable"></path><path d="M118.39,395.29c-7,4.07-12.77,14-12.77,22.11,0,4.08,1.43,6.94,3.75,8.27l1.91,1.1c2.31,1.34,5.5,1.15,9-.89,7-4.07,12.77-14,12.77-22.11,0-4.07-1.43-6.93-3.75-8.26l-1.92-1.11C125.1,393.07,121.91,393.26,118.39,395.29Z" style="fill: rgb(240, 240, 240); transform-origin: 119.335px 410.589px;" id="eljcug97aq6ea" class="animable"></path><g id="el5p4ilneglf"><ellipse cx="120.31" cy="411.14" rx="18.05" ry="10.42" style="fill: rgb(224, 224, 224); transform-origin: 120.31px 411.14px; transform: rotate(-60deg);" class="animable" id="elh31go0srzmc"></ellipse></g><path d="M120.31,396.4c-7,4.07-12.77,14-12.77,22.11,0,4.07,1.43,6.92,3.74,8.26l3.85,2.23c2.31,1.33,5.5,1.13,9-.9,7-4.07,12.77-14,12.77-22.11,0-4.07-1.43-6.92-3.74-8.26l-3.85-2.22C127,394.18,123.83,394.37,120.31,396.4Z" style="fill: #92E3A9; transform-origin: 122.22px 412.253px;" id="el1qd0hofe67j" class="animable"></path><g id="elolfek9qzjl"><path d="M111.38,420.73c0-8.14,5.72-18,12.77-22.11s12.77-.77,12.77,7.37-5.72,18-12.77,22.11S111.38,428.87,111.38,420.73Z" style="opacity: 0.1; transform-origin: 124.15px 413.36px;" class="animable" id="elpklwb6ju2c"></path></g><path d="M120,426.36l.27.2.23.14a2.69,2.69,0,0,0,.29.16l.25.11.3.12.27.08.33.08.28.05.34,0h1l.22,0,.15,0,.13,0,.29-.06.25-.05.46-.13.31-.1.17-.06.18-.07.46-.2.21-.09.08,0c.25-.12.49-.25.74-.39A15.41,15.41,0,0,0,130,424a21.89,21.89,0,0,0,6.61-12.73,12.81,12.81,0,0,0,.11-1.61,1.55,1.55,0,0,0,0-.22v-.37a2.45,2.45,0,0,1,0-.27l0-.29,0-.29,0-.25c0-.1,0-.2-.05-.29s0-.15,0-.23l-.06-.28-.06-.23a2.17,2.17,0,0,1-.07-.24c0-.11-.07-.21-.11-.31s0-.1,0-.14a.61.61,0,0,0-.05-.12L134.14,405a9.29,9.29,0,0,1,.62,3.53c0,6-4.24,13.38-9.47,16.4a7.4,7.4,0,0,1-5.65,1.1l.14.13Z" style="fill: rgb(38, 50, 56); transform-origin: 128.182px 416.15px;" id="elxizmju63bes" class="animable"></path><path d="M117.37,425.91a5.46,5.46,0,0,0,.75.54l1.91,1.1h0a5.79,5.79,0,0,1-2-2Z" style="fill: rgb(55, 71, 79); transform-origin: 118.7px 426.55px;" id="ela0panlbr4al" class="animable"></path><path d="M136.11,406.26s0,.09,0,.14.07.2.11.31a2.17,2.17,0,0,0,.07.24c0,.05,0,.1,0,.16s0,.05,0,.07l.06.28c0,.07,0,.15,0,.23a2.93,2.93,0,0,0,.05.29l0,.25,0,.29,0,.29a2.45,2.45,0,0,0,0,.27v.37a1.48,1.48,0,0,1,0,.21,13.91,13.91,0,0,1-.1,1.56,18.6,18.6,0,0,1-1,4.32,23.18,23.18,0,0,1-1.63,3.46A22.14,22.14,0,0,1,130,424L130,424a15.77,15.77,0,0,1-2.74,2.05c-.23.13-.45.25-.68.36l-.1.05-.07,0c-.19.09-.38.18-.57.25l-.13.05-.18.07-.27.09c-.1,0-.19.07-.29.09a1.57,1.57,0,0,1-.31.08l-.11,0h0l-.25.06-.31.05-.39,0-.27,0h-.76l-.19,0-.14,0H122l-.23,0-.07,0-.27-.07h0l-.12-.05L121,427l-.25-.11a2.69,2.69,0,0,1-.29-.16l-.23-.14-.27-.2-.2-.17-.15-.13-.1-.11-.19-.19c-.08-.09-.15-.19-.23-.3l-.15-.2a1.32,1.32,0,0,1-.12-.2l-.82.48a5.79,5.79,0,0,0,2,2h0l.37.19.06,0a5.77,5.77,0,0,0,1.15.39l.14,0,.37.06h.12c.21,0,.43,0,.65,0h.25l.31,0,.33,0,.32,0,.51-.1.24-.05.43-.12.21-.07c.21-.07.42-.14.63-.23l.16-.06.53-.24.19-.09c.22-.12.45-.23.67-.36a17.11,17.11,0,0,0,3.87-3.14,23.92,23.92,0,0,0,1.69-2c.26-.36.52-.73.76-1.11a23.42,23.42,0,0,0,1.92-3.55,18.9,18.9,0,0,0,1.71-7.39,11.23,11.23,0,0,0-.34-2.82l-1.23-.71A.61.61,0,0,1,136.11,406.26Z" style="fill: rgb(69, 90, 100); transform-origin: 127.795px 417.19px;" id="elipoylabn0d" class="animable"></path><path d="M124.15,403.38c-4.77,2.76-8.64,9.46-8.64,15,0,2.76,1,4.7,2.54,5.6l4.15,2.4c1.56.91,3.73.78,6.12-.6,4.77-2.75,8.64-9.45,8.64-15,0-2.76-1-4.7-2.54-5.6-.48-.28-3.68-2.14-4.17-2.41C128.69,401.88,126.53,402,124.15,403.38Z" style="fill: #92E3A9; transform-origin: 126.235px 414.581px;" id="elji9ldnxus7g" class="animable"></path><g id="elst90qblevrp"><path d="M124.15,403.38c-4.77,2.76-8.64,9.46-8.64,15,0,2.76,1,4.7,2.54,5.6l4.15,2.4c1.56.91,3.73.78,6.12-.6,4.77-2.75,8.64-9.45,8.64-15,0-2.76-1-4.7-2.54-5.6-.48-.28-3.68-2.14-4.17-2.41C128.69,401.88,126.53,402,124.15,403.38Z" style="opacity: 0.3; transform-origin: 126.235px 414.581px;" class="animable" id="elcbky48aaoul"></path></g><g id="ell9vhgpazaea"><ellipse cx="128.32" cy="415.77" rx="12.22" ry="7.05" style="fill: #92E3A9; transform-origin: 128.32px 415.77px; transform: rotate(-60deg);" class="animable" id="el0uuho22cz56"></ellipse></g><path d="M122,419.83a14.83,14.83,0,0,1,6.7-11.61c3.71-2.14,6.71-.41,6.71,3.87a14.78,14.78,0,0,1-6.71,11.61C125,425.84,122,424.11,122,419.83Z" style="fill: rgb(38, 50, 56); transform-origin: 128.705px 415.96px;" id="el4h6mnslrill" class="animable"></path><path d="M123.55,414.68l5.42,1.45-4.74,8.21c-1.22-.7-2-2.2-2-4.33A13.18,13.18,0,0,1,123.55,414.68Z" style="fill: rgb(69, 90, 100); transform-origin: 125.6px 419.51px;" id="elx00g10gp4b" class="animable"></path><path d="M129,408.39c1.85-1.07,3.53-1.17,4.74-.47L129,416.13l-5.42-1.45A14.37,14.37,0,0,1,129,408.39Z" style="fill: rgb(55, 71, 79); transform-origin: 128.66px 411.802px;" id="eldhdo85ujl5" class="animable"></path><path d="M133.71,407.92c1.21.7,2,2.2,2,4.34a13,13,0,0,1-1.3,5.32L129,416.13Z" style="fill: rgb(69, 90, 100); transform-origin: 132.355px 412.75px;" id="eldtmod8mizq" class="animable"></path><path d="M129,416.13l5.41,1.45a14.3,14.3,0,0,1-5.41,6.29c-1.85,1.07-3.53,1.17-4.74.47Z" style="fill: rgb(55, 71, 79); transform-origin: 129.335px 420.458px;" id="eljlqwycllrym" class="animable"></path><path d="M135.92,405.81l0,0c-.06-.13-.13-.26-.2-.38l0-.06a3.89,3.89,0,0,0-.34-.52v0c-.11-.14-.22-.27-.34-.4l-.15-.16a2.61,2.61,0,0,0-.31-.27l-.25-.19-.12-.09a4.73,4.73,0,0,0-1.27-.58,5.33,5.33,0,0,1,1.27,1.93l1.92,1.11C136,406,136,405.92,135.92,405.81Z" style="fill: rgb(38, 50, 56); transform-origin: 134.535px 404.68px;" id="eligq34ohwblo" class="animable"></path><path d="M116,418.87a3.07,3.07,0,0,0,1.24-1.75c1.22-5.46,5-11.14,9.54-13.74,3.28-1.89,6.41-1.87,8.49-.06h0a4.77,4.77,0,0,0-.85-.61l-1.92-1.11c-2-1.17-4.78-1-7.64.67-4.51,2.6-8.32,8.28-9.54,13.74a3.07,3.07,0,0,1-1.24,1.75l-6.64,3.83,1.92,1.11v0Z" style="fill: rgb(55, 71, 79); transform-origin: 121.355px 411.773px;" id="elyr8jyvlxlx8" class="animable"></path><path d="M117.2,417.12a3.07,3.07,0,0,1-1.24,1.75l-6.64,3.83v1.09l.94-.55,6.57-3.78.27-.21.07-.06a3.07,3.07,0,0,0,.25-.26,3.14,3.14,0,0,0,.33-.48l.06-.13A3,3,0,0,0,118,418c0-.09,0-.17.07-.25h0c.06-.3.12-.6.2-.89l.06-.24c.07-.26.14-.52.22-.78a.56.56,0,0,0,0-.12c.09-.3.2-.59.3-.88l.09-.23c.09-.25.19-.49.29-.73a1.34,1.34,0,0,0,.07-.18c.13-.29.26-.57.4-.86l.1-.2c.11-.24.23-.47.36-.7l.1-.2.48-.82c0-.06.07-.11.1-.16.14-.23.28-.46.43-.68,0-.07.09-.14.14-.2.18-.27.36-.53.55-.78a.86.86,0,0,0,.07-.1l.52-.66.16-.19c.2-.24.41-.48.62-.71s.42-.46.64-.67l.14-.14c.22-.21.44-.42.66-.61l.11-.1c.21-.18.41-.35.62-.51l.12-.09.69-.51.16-.1c.24-.16.48-.32.73-.46a8.6,8.6,0,0,1,4.11-1.29,4.25,4.25,0,0,1,.8,0,2.32,2.32,0,0,1,.38.06,2.22,2.22,0,0,1,.37.09,4.73,4.73,0,0,1,1.27.58l.12.09.25.19a3.47,3.47,0,0,1,.29.25l0,0,.15.16.09.1a2.48,2.48,0,0,1,.25.3v0a3.89,3.89,0,0,1,.34.52l0,0,0,0,.05.07.15.31,0,0c.05.11.1.22.14.33l1.23.71a8,8,0,0,0-.79-2l-.15-.24-.21-.31-.13-.17c-.09-.11-.17-.22-.26-.32l-.13-.15-.06-.05-.27-.27-.06-.05c-2.08-1.81-5.21-1.83-8.49.06C122.23,406,118.42,411.66,117.2,417.12Z" style="fill: rgb(69, 90, 100); transform-origin: 123.255px 412.796px;" id="elfmcnfcp08t" class="animable"></path><path d="M117.76,422.82l0,0-.06,0-1.92-1.11a.81.81,0,0,0-.83.05L107.4,426l1.92,1.11,7.51-4.33A.79.79,0,0,1,117.76,422.82Z" style="fill: rgb(55, 71, 79); transform-origin: 112.58px 424.364px;" id="elilgfsa6qhd9" class="animable"></path><path d="M117.92,425.38a7.5,7.5,0,0,1-.58-1.25.36.36,0,0,0-.55-.22l-.75.43a5.86,5.86,0,0,0,1.33,1.57l.65-.37C118,425.48,118,425.44,117.92,425.38Z" style="fill: rgb(55, 71, 79); transform-origin: 117.03px 424.88px;" id="eldtdry1c50dp" class="animable"></path><path d="M118.62,424.7c-.1-.2-.2-.41-.29-.63s-.15-.42-.22-.64c0,0,0,0,0,0v0h0a1.8,1.8,0,0,0-.08-.21h0a.83.83,0,0,0-.09-.16l0,0-.12-.12h0a.79.79,0,0,0-.93,0l-7.51,4.33h0v1.1l1-.55,5.77-3.34.75-.43a.36.36,0,0,1,.55.22,7.5,7.5,0,0,0,.58,1.25c0,.06.07.1.1.16l.82-.48c0-.05-.07-.11-.11-.17S118.65,424.77,118.62,424.7Z" style="fill: rgb(69, 90, 100); transform-origin: 114.165px 425.579px;" id="elq5wavberazs" class="animable"></path><path d="M104.44,429.26a1.35,1.35,0,0,0,.79,1.11,4.26,4.26,0,0,0,3.84,0,1.36,1.36,0,0,0,.8-1.12v-8.86h-5.43Z" style="fill: #92E3A9; transform-origin: 107.155px 425.609px;" id="elz1pdamul36" class="animable"></path><g id="elnp7rcq84qx"><path d="M104.44,429.26a1.35,1.35,0,0,0,.79,1.11,4.26,4.26,0,0,0,3.84,0,1.36,1.36,0,0,0,.8-1.12v-8.86h-5.43Z" style="opacity: 0.3; transform-origin: 107.155px 425.609px;" class="animable" id="eljpwjnrinfrs"></path></g><g id="elpn6ofe9a0z"><path d="M108,430.75a3.53,3.53,0,0,0,1.12-.38,1.36,1.36,0,0,0,.8-1.12v-8.86H108Z" style="opacity: 0.3; transform-origin: 108.96px 425.57px;" class="animable" id="elcw3ncqj01r"></path></g><path d="M109.07,421.5a4.26,4.26,0,0,1-3.84,0,1.17,1.17,0,0,1,0-2.22,4.26,4.26,0,0,1,3.84,0,1.17,1.17,0,0,1,0,2.22Z" style="fill: #92E3A9; transform-origin: 107.15px 420.39px;" id="elyo4fec8ug8r" class="animable"></path><g id="elem2peqws9u8"><path d="M109.07,421.5a4.26,4.26,0,0,1-3.84,0,1.17,1.17,0,0,1,0-2.22,4.26,4.26,0,0,1,3.84,0,1.17,1.17,0,0,1,0,2.22Z" style="opacity: 0.2; transform-origin: 107.15px 420.39px;" class="animable" id="el59s1lfaz9vx"></path></g><path d="M108.24,421a2.37,2.37,0,0,1-2.17,0,.79.79,0,0,1-.46-.62.78.78,0,0,1,.46-.64,2.37,2.37,0,0,1,2.17,0,.77.77,0,0,1,.45.63A.76.76,0,0,1,108.24,421Z" style="fill: rgb(55, 71, 79); transform-origin: 107.15px 420.37px;" id="elxigjeybaavi" class="animable"></path><path d="M106.07,420.35a.91.91,0,0,0-.36.34,1,1,0,0,0,.36.33,2.37,2.37,0,0,0,2.17,0,1,1,0,0,0,.37-.34,1,1,0,0,0-.36-.33A2.39,2.39,0,0,0,106.07,420.35Z" style="fill: rgb(38, 50, 56); transform-origin: 107.16px 420.685px;" id="elglzcvxupson" class="animable"></path><path d="M54.52,400.44a1.35,1.35,0,0,0,.79,1.11,4.26,4.26,0,0,0,3.84,0,1.36,1.36,0,0,0,.8-1.12v-8.86H54.52Z" style="fill: #92E3A9; transform-origin: 57.235px 396.789px;" id="elg0953xlob5o" class="animable"></path><g id="elnc2sox1xjbi"><path d="M54.52,400.44a1.35,1.35,0,0,0,.79,1.11,4.26,4.26,0,0,0,3.84,0,1.36,1.36,0,0,0,.8-1.12v-8.86H54.52Z" style="opacity: 0.3; transform-origin: 57.235px 396.789px;" class="animable" id="elvv57jarhz7"></path></g><g id="el8fmjlu01ko3"><path d="M58,401.93a3.53,3.53,0,0,0,1.12-.38,1.36,1.36,0,0,0,.8-1.12v-8.86H58Z" style="opacity: 0.3; transform-origin: 58.96px 396.75px;" class="animable" id="ellsdwtz4itkb"></path></g><path d="M59.15,392.68a4.26,4.26,0,0,1-3.84,0,1.36,1.36,0,0,1-.79-1.1,1.33,1.33,0,0,1,.79-1.12,4.26,4.26,0,0,1,3.84,0,1.17,1.17,0,0,1,0,2.22Z" style="fill: #92E3A9; transform-origin: 57.2351px 391.57px;" id="elap81nmjnxho" class="animable"></path><g id="elynakwmd0bh"><path d="M59.15,392.68a4.26,4.26,0,0,1-3.84,0,1.36,1.36,0,0,1-.79-1.1,1.33,1.33,0,0,1,.79-1.12,4.26,4.26,0,0,1,3.84,0,1.17,1.17,0,0,1,0,2.22Z" style="opacity: 0.2; transform-origin: 57.2351px 391.57px;" class="animable" id="el0xvwmqmghqr"></path></g><path d="M58.32,392.2a2.37,2.37,0,0,1-2.17,0,.79.79,0,0,1-.46-.63.78.78,0,0,1,.46-.63,2.37,2.37,0,0,1,2.17,0,.76.76,0,0,1,.45.63A.77.77,0,0,1,58.32,392.2Z" style="fill: rgb(55, 71, 79); transform-origin: 57.23px 391.57px;" id="elkois4cme4n" class="animable"></path><path d="M56.15,391.52a.93.93,0,0,0-.36.35,1,1,0,0,0,.36.33,2.37,2.37,0,0,0,2.17,0,1,1,0,0,0,.37-.35,1.06,1.06,0,0,0-.36-.33A2.46,2.46,0,0,0,56.15,391.52Z" style="fill: rgb(38, 50, 56); transform-origin: 57.24px 391.864px;" id="elxj5eu1jkso" class="animable"></path><path d="M37.71,403.32v9.57A16,16,0,0,0,36.2,416,14.07,14.07,0,0,1,37.71,403.32Z" style="fill: #92E3A9; transform-origin: 36.5225px 409.66px;" id="el5r93ewfp8sk" class="animable"></path><g id="elyw1nui24ptq"><path d="M37.71,403.32v9.57A16,16,0,0,0,36.2,416,14.07,14.07,0,0,1,37.71,403.32Z" style="opacity: 0.2; transform-origin: 36.5225px 409.66px;" class="animable" id="elymrcpgbrpra"></path></g><path d="M56.33,394.34a38.26,38.26,0,0,0-6.21,2.83c-13.34,7.71-13.34,20.2,0,27.9s35,7.7,48.32,0a27.09,27.09,0,0,0,4.91-3.59l3.11,1.8a30.77,30.77,0,0,1-5,3.54c-15,8.67-39.37,8.67-54.39,0s-15-22.73,0-31.4a42.19,42.19,0,0,1,6.14-2.88l3.11,1.79" style="fill: rgb(55, 71, 79); transform-origin: 71.1363px 412.931px;" id="el7q5ayei8v2" class="animable"></path><path d="M56.33,394.34a38.26,38.26,0,0,0-6.21,2.83c-8.8,5.08-11.8,12.25-9,18.75,1.44-3.37,4.44-6.56,9-9.2a38.54,38.54,0,0,1,6.2-2.83Z" style="fill: rgb(38, 50, 56); transform-origin: 48.2181px 405.13px;" id="el9vxue7befuk" class="animable"></path><path d="M35.83,411.69c.24,5.49,4,10.94,11.26,15.13,15,8.67,39.36,8.67,54.38,0a30.77,30.77,0,0,0,5-3.54v9.55a30.73,30.73,0,0,1-5,3.55c-15,8.67-39.37,8.67-54.38,0-7.51-4.33-11.26-10-11.26-15.69Z" style="fill: rgb(69, 90, 100); transform-origin: 71.15px 427.286px;" id="elc1np4azfz7m" class="animable"></path><path d="M102.4,430.51a1.34,1.34,0,0,1,.15.66,3.06,3.06,0,0,1-1.39,2.41c-.56.32-1.08.24-1.34-.2a1.34,1.34,0,0,1-.15-.66,3.08,3.08,0,0,1,1.39-2.41C101.62,430,102.14,430.07,102.4,430.51Z" style="fill: rgb(38, 50, 56); transform-origin: 101.11px 431.947px;" id="eletd4xhywarp" class="animable"></path><path d="M33.78,411.45A16.11,16.11,0,0,0,36,419.18a26.66,26.66,0,0,0,10,9.41c10.61,6.12,25.74,8.07,39.23,5.84V444c-13.49,2.22-28.62.28-39.23-5.85a26.64,26.64,0,0,1-10-9.4,16.08,16.08,0,0,1-2.26-8C33.78,419.18,33.78,413.48,33.78,411.45Z" style="fill: #92E3A9; transform-origin: 59.485px 428.169px;" id="elu13jgd491lm" class="animable"></path><g id="elh04g40qinya"><path d="M33.78,411.45A16.11,16.11,0,0,0,36,419.18a26.66,26.66,0,0,0,10,9.41c10.61,6.12,25.74,8.07,39.23,5.84V444c-13.49,2.22-28.62.28-39.23-5.85a26.64,26.64,0,0,1-10-9.4,16.08,16.08,0,0,1-2.26-8C33.78,419.18,33.78,413.48,33.78,411.45Z" style="fill: rgb(255, 255, 255); opacity: 0.6; transform-origin: 59.485px 428.169px;" class="animable" id="elqwhkxgaird"></path></g><path d="M37.7,403.33a14.09,14.09,0,0,0-.34,15.09,24.93,24.93,0,0,0,9.47,8.84c10.39,6,25.26,7.88,38.46,5.64v1.53c-13.49,2.23-28.62.28-39.23-5.84a26.66,26.66,0,0,1-10-9.41,15.43,15.43,0,0,1-.12-15.86Z" style="fill: #92E3A9; transform-origin: 59.5479px 419.321px;" id="el71lxmrplh2w" class="animable"></path></g></g><g id="freepik--Character--inject-2" class="animable" style="transform-origin: 368.875px 260.561px;"><g id="freepik--character--inject-2" class="animable" style="transform-origin: 368.875px 260.561px;"><g id="freepik--Bottom--inject-2" class="animable" style="transform-origin: 379.405px 341.139px;"><path d="M384.82,331.28,397.18,311l24.12,14.06c-13.82,11.71-28.86,26.08-32.37,31.38,0,0-13.28-4-14.87-11.08S381,333.29,384.82,331.28Z" style="fill: rgb(200, 133, 106); transform-origin: 397.582px 333.72px;" id="elqpbwsprcvwe" class="animable"></path><path d="M369,338.4a11.23,11.23,0,0,0-3.25,3c-1,1.22-1.18,7.49-2.24,10.33s-1.75,3.56-3.42,7.09c-1.85,3.91-5,7.38-2.57,18,2.44,10.76,7.17,16,11.32,18.82a11.34,11.34,0,0,0,5.13,1.67s5.86-1.71,5.25-5.14S369,338.4,369,338.4Z" style="fill: rgb(38, 50, 56); transform-origin: 367.95px 367.855px;" id="elg5i9eiuaqwv" class="animable"></path><path d="M393.05,351.71c-.24,1.05-1.86,2.58-2.53,3.4-2.27,2.77-3.52,6.66-4.49,10.07-4.63,16.14,1.24,25-8.06,30.44-2.68,1.41-8,.56-15.21-10.4-3.71-5.59-5.21-16.63-3.23-21.42s4.43-7.82,5.76-11.53,1.34-10.78,3.68-13.87a15.31,15.31,0,0,1,5.46-4c1.64-.83,5.16-1.81,6.82-2.6s2.63-1.74,3.57-.51l-2,2.14c-3.19,3.76-2.43,4.4-2.53,6.53s-1,4.5-1.59,6.67c2.25-2.43,3.26-4.62,5.46-4.05s2.48.48,5.45,3.73S393.26,350.77,393.05,351.71Z" style="fill: #92E3A9; transform-origin: 375.869px 363.419px;" id="elg4w1ngmihvh" class="animable"></path><g id="elj4mwi7ax0iq"><path d="M393.05,351.71c-.24,1.05-1.86,2.58-2.53,3.4-2.27,2.77-3.52,6.66-4.49,10.07-4.63,16.14,1.24,25-8.06,30.44-2.68,1.41-8,.56-15.21-10.4-3.71-5.59-5.21-16.63-3.23-21.42s4.43-7.82,5.76-11.53,1.34-10.78,3.68-13.87a15.31,15.31,0,0,1,5.46-4c1.64-.83,5.16-1.81,6.82-2.6s2.63-1.74,3.57-.51l-2,2.14c-3.19,3.76-2.43,4.4-2.53,6.53s-1,4.5-1.59,6.67c2.25-2.43,3.26-4.62,5.46-4.05s2.48.48,5.45,3.73S393.26,350.77,393.05,351.71Z" style="opacity: 0.4; transform-origin: 375.869px 363.419px;" class="animable" id="elr2u9nr8izlb"></path></g><g id="eldghsq7odju6"><path d="M362.76,385.22c-3.71-5.59-5.21-16.63-3.23-21.42a47.53,47.53,0,0,1,2.26-4.62c-.09.33-.22.66-.29.94-.14.63-.28,1.26-.39,1.9a14.78,14.78,0,0,0,.24,7.5c.77,2.12,2.51,7.41,5.26,7.73,1.56.19,3-1.24,3.74-2.94.31-.71.88-2.67.88-2.67a24.29,24.29,0,0,1,6.94,3.48c3.8,3,3.61,3.53,3.61,3.53a10.46,10.46,0,0,0-.4,3.51,8.64,8.64,0,0,0,1.22,3.61,5.72,5.72,0,0,0,.95.9c-.46,3.76-1.68,6.66-5.58,8.95C375.29,397,370,396.18,362.76,385.22Z" style="opacity: 0.3; transform-origin: 371.102px 377.653px;" class="animable" id="el7jahm1mxrg9"></path></g><path d="M386,365.18a55.28,55.28,0,0,0-2,13c-1.83,4.08-3.14,3.85-3.16,1.67s3.59-11,6.33-18.29C386.73,362.8,386.36,364,386,365.18Z" style="fill: rgb(55, 71, 79); transform-origin: 384.005px 371.477px;" id="elsfihx7d8pd" class="animable"></path><path d="M378.09,338.12a9.11,9.11,0,0,1,2.07-5.87c.4-.16.79-.31,1.09-.46,1.81-.84,2.63-1.74,3.57-.51l-2,2.14c-3.19,3.76-2.43,4.4-2.53,6.53s-1,4.5-1.59,6.66c-2.22,7-3.93,9.25-5.24,15.92s-.31,11.28-1.29,11.59-2.84-.6-2.77-6,3.15-14.29,5.16-18.45S378.2,341,378.09,338.12Z" style="fill: rgb(55, 71, 79); transform-origin: 377.109px 352.426px;" id="el1fuvxdcz4mm" class="animable"></path><path d="M370.72,372.07a.65.65,0,0,0,.33.22c4.64,1.33,7.06,2.71,10.26,7.12a.67.67,0,1,0,1.09-.78c-3.38-4.66-6-6.22-11-7.64a.69.69,0,0,0-.84.46A.68.68,0,0,0,370.72,372.07Z" style="fill: rgb(235, 235, 235); transform-origin: 376.533px 375.328px;" id="elnq2e3f081i" class="animable"></path><path d="M372,366.53a.64.64,0,0,0,.32.21c4.8,1.51,7.4,3.11,10.79,7.75a.67.67,0,0,0,1,.15.69.69,0,0,0,.15-1c-3.58-4.89-6.41-6.65-11.49-8.25a.68.68,0,0,0-.87.45A.71.71,0,0,0,372,366.53Z" style="fill: rgb(235, 235, 235); transform-origin: 378.131px 370.077px;" id="elyyn2nteogk" class="animable"></path><path d="M372.36,360.35a.75.75,0,0,0,.36.23c5.28,1.67,8.31,3.58,12,8.7a.76.76,0,1,0,1.23-.89c-3.94-5.39-7.22-7.5-12.83-9.26a.75.75,0,0,0-.95.5A.78.78,0,0,0,372.36,360.35Z" style="fill: rgb(235, 235, 235); transform-origin: 379.132px 364.359px;" id="el1n4lwf6a69o" class="animable"></path><path d="M373.67,355.14a.69.69,0,0,0,.34.23c5.19,1.63,8.12,3.47,11.79,8.5a.76.76,0,0,0,1.05.16.75.75,0,0,0,.16-1c-3.86-5.28-7.06-7.32-12.55-9a.75.75,0,0,0-.94.49A.74.74,0,0,0,373.67,355.14Z" style="fill: rgb(235, 235, 235); transform-origin: 380.319px 359.084px;" id="elzsp6jf0y6xa" class="animable"></path><path d="M376,350.15a.66.66,0,0,0,.35.23c5.18,1.64,8.11,3.47,11.79,8.51a.76.76,0,0,0,1,.16.75.75,0,0,0,.16-1c-3.86-5.29-7-7.32-12.55-9.05a.74.74,0,0,0-.79,1.19Z" style="fill: rgb(235, 235, 235); transform-origin: 382.6px 354.066px;" id="ela0a26422l6l" class="animable"></path><path d="M365.74,252.07s57.12,2.4,78.68,5.82c22,3.5,21.52,20.35,14.46,29.63-13.5,17.78-53.63,52.2-53.63,52.2s-13.07-6.23-15.23-17.47l10.08-18.09-43.58-.63-6.92-6.77Z" style="fill: rgb(69, 90, 100); transform-origin: 406.404px 295.895px;" id="elpq86wkzb7b" class="animable"></path><path d="M412.49,321.4c-3.81-6.76-6.74-8.65-14.82-12.9L390,322.25c2.16,11.24,15.23,17.47,15.23,17.47s4.63-4,11.26-9.9A83.39,83.39,0,0,0,412.49,321.4Z" style="fill: rgb(55, 71, 79); transform-origin: 403.245px 324.11px;" id="elwaxlmhtael8" class="animable"></path><path d="M405.81,286.48c-3.38,3.69-6.35,7-8.92,10.24s-9.2,4-15.44,1.66c-7.76-2.86-16.24-8.24-21.18-11.33,5.91-8.2,3.67-18.23,3.67-18.23.1,7.19-4.09,12.81-7.23,16l-3.36,2.94-.1,11.43,2.51,4.22,37.49.54h0l6.09.09c10.34-16.91,14.46-24.41,24.4-26.68C423.74,277.36,415.84,275.54,405.81,286.48Z" style="fill: rgb(55, 71, 79); transform-origin: 388.495px 286.43px;" id="eldf93prd1han" class="animable"></path><path d="M419.6,399.26,403.44,375.7l21.48-13.54c6.78,15.1,13.43,29.56,18.28,35.48,0,0-5.66,12-12.87,11.67S420.51,403.47,419.6,399.26Z" style="fill: rgb(200, 133, 106); transform-origin: 423.32px 385.738px;" id="elg1rjhqabos" class="animable"></path><path d="M422.27,412.36a11.22,11.22,0,0,0,2.06,3.93c.92,1.26,6.91,3.15,9.36,4.92s3,2.64,5.92,5.19c3.28,2.83,5.78,6.77,16.65,7.28s17.28-2.65,21.15-5.88a11.46,11.46,0,0,0,3-4.5s-.08-6.1-3.55-6.43S422.27,412.36,422.27,412.36Z" style="fill: rgb(38, 50, 56); transform-origin: 451.34px 423.047px;" id="eltmgoh9q8c2s" class="animable"></path><path d="M441.53,392.7c1,.52,2,2.48,2.6,3.35,2.07,2.93,5.48,5.17,8.51,7C467,411.84,477,408.54,479.82,419c.65,3-1.58,7.81-14.08,11.88-6.39,2.08-17.43.59-21.51-2.61s-6.36-6.36-9.57-8.63-10-4.17-12.39-7.24a15.3,15.3,0,0,1-2.4-6.34c-.36-1.8-1.24-7.94-1.24-7.94,2.78,4.08,6.13,3.13,8.15,3.79s4.06,2.19,6,3.32c-1.73-2.81-3.57-4.37-2.44-6.34s1.13-2.26,5.05-4.25S440.68,392.25,441.53,392.7Z" style="fill: #92E3A9; transform-origin: 449.276px 412.187px;" id="el7wqhxc79elu" class="animable"></path><g id="el2dq83v8dl8p"><path d="M441.53,392.7c1,.52,2,2.48,2.6,3.35,2.07,2.93,5.48,5.17,8.51,7C467,411.84,477,408.54,479.82,419c.65,3-1.58,7.81-14.08,11.88-6.39,2.08-17.43.59-21.51-2.61s-6.36-6.36-9.57-8.63-10-4.17-12.39-7.24a15.3,15.3,0,0,1-2.4-6.34c-.36-1.8-1.24-7.94-1.24-7.94,2.78,4.08,6.13,3.13,8.15,3.79s4.06,2.19,6,3.32c-1.73-2.81-3.57-4.37-2.44-6.34s1.13-2.26,5.05-4.25S440.68,392.25,441.53,392.7Z" style="opacity: 0.4; transform-origin: 449.276px 412.187px;" class="animable" id="el1xnlm12h21q"></path></g><g id="el9zt0tqt7t9c"><path d="M465.74,430.84c-6.39,2.08-17.43.59-21.51-2.61a43.58,43.58,0,0,1-3.85-3.41c.29.18.58.39.83.53.56.31,1.14.61,1.72.88a14.72,14.72,0,0,0,7.3,1.78c2.24-.18,7.81-.45,8.86-3,.59-1.45-.4-3.22-1.84-4.38-.61-.49-2.34-1.57-2.34-1.57a24.35,24.35,0,0,1,5.21-5.76c3.86-2.87,4.36-2.53,4.36-2.53a10.63,10.63,0,0,0,3.27,1.32,8.74,8.74,0,0,0,3.81-.21,5.39,5.39,0,0,0,1.12-.68c3.51,1.45,6,3.4,7.14,7.77C480.47,421.92,478.24,426.77,465.74,430.84Z" style="opacity: 0.3; transform-origin: 460.151px 421.279px;" class="animable" id="eld3cov9lfd5"></path></g><path d="M452.64,403.07a55,55,0,0,0,12,5.44c3.44,2.86,2.87,4.06.76,3.49s-9.64-6.39-15.93-11C450.53,401.76,451.61,402.44,452.64,403.07Z" style="fill: rgb(55, 71, 79); transform-origin: 458.286px 406.569px;" id="ely9kanw0yf4" class="animable"></path><path d="M424.44,403.49c-2-.47-3.62-.58-5.22-1.8-1-.72-1.27-3.36-1-4.49l1.52,2.19c2.86,1.83,5.06,1.82,7.08,2.48s4.06,2.19,6,3.32c6.14,4,7.87,6.26,13.94,9.3s10.79,3.31,10.83,4.34-1.35,2.57-6.55,1.06S438.07,413,434.6,410,427.26,404.16,424.44,403.49Z" style="fill: rgb(55, 71, 79); transform-origin: 437.856px 408.861px;" id="elz9repgw1vrr" class="animable"></path><path d="M455.19,419.66a.61.61,0,0,0,.29-.26c2.53-4.12,4.51-6.08,9.61-8a.69.69,0,0,0,.4-.87.68.68,0,0,0-.87-.39c-5.39,2-7.6,4.16-10.29,8.54a.67.67,0,0,0,.23.92A.64.64,0,0,0,455.19,419.66Z" style="fill: rgb(235, 235, 235); transform-origin: 459.881px 414.907px;" id="ellg7a2au9fb" class="animable"></path><path d="M450.19,416.94a.59.59,0,0,0,.29-.25c2.74-4.22,5-6.3,10.35-8.33a.68.68,0,0,0,.41-.89.7.7,0,0,0-.89-.4c-5.68,2.14-8.13,4.4-11,8.87a.71.71,0,0,0,.21,1A.68.68,0,0,0,450.19,416.94Z" style="fill: rgb(235, 235, 235); transform-origin: 455.257px 412.023px;" id="elczd9m45f7xa" class="animable"></path><path d="M444.33,415a.86.86,0,0,0,.32-.28c3-4.65,5.67-7.06,11.61-9.3a.76.76,0,0,0-.54-1.42c-6.24,2.35-9.15,5-12.35,9.89a.76.76,0,0,0,.22,1.05A.78.78,0,0,0,444.33,415Z" style="fill: rgb(235, 235, 235); transform-origin: 449.987px 409.512px;" id="el0amgonb8oyr6" class="animable"></path><path d="M439.66,412.3A.8.8,0,0,0,440,412c3-4.57,5.52-6.9,11.35-9.1a.74.74,0,0,0-.53-1.39c-6.12,2.3-8.94,4.84-12.07,9.68a.75.75,0,0,0,.22,1A.77.77,0,0,0,439.66,412.3Z" style="fill: rgb(235, 235, 235); transform-origin: 445.237px 406.899px;" id="el2jvzkq9zhxp" class="animable"></path><path d="M435.47,408.72a.76.76,0,0,0,.32-.27c3-4.56,5.51-6.9,11.34-9.1a.74.74,0,1,0-.52-1.39c-6.13,2.31-8.94,4.84-12.07,9.67a.75.75,0,0,0,.93,1.09Z" style="fill: rgb(235, 235, 235); transform-origin: 441.018px 403.347px;" id="elxar71w10smj" class="animable"></path><path d="M433.1,378.21c-6.16,7.94-20.31,13.16-20.31,13.16S408,385.5,396.32,372.6c-8.25-9.09-14.84-17.85-19-28-15.46-5.62-44.86-13.22-71.61-29.08-19.16-11.35-24.8-27.34-19.05-53.22S370.4,255,370.4,255l-17,32.74s33.39,18.92,44.7,25.73c5.2,3.13,6.78,3.29,11.94,13.4C421.81,350,433.1,378.21,433.1,378.21Z" style="fill: rgb(69, 90, 100); transform-origin: 358.808px 319.957px;" id="eljq2ptrwyh9" class="animable"></path><path d="M433.1,378.21c-6.16,7.94-20.31,13.16-20.31,13.16S408,385.5,396.32,372.6c-8.25-9.09-14.84-17.85-19-28-15.46-5.62-44.86-13.22-71.61-29.08-19.16-11.35-24.2-22.8-27.31-46l87.31-17.48-12.39,35.69s33.39,18.92,44.7,25.73c5.2,3.13,6.78,3.29,11.94,13.4C421.81,350,433.1,378.21,433.1,378.21Z" style="fill: rgb(69, 90, 100); transform-origin: 355.75px 321.705px;" id="elrhp6st3x4ee" class="animable"></path><path d="M417,389.59l1.14-.55c-6.09-7.76-21.34-27.84-25.66-36-1.49-2.82-2.62-5.31-3.61-7.5-2.34-5.17-3.88-8.58-7.41-10-.76-.31-2.59-1-5.37-2-14.13-5.22-51.66-19.06-64-28.39-.36-.28-.7-.57-1.05-.86,5.3-3.87,6.12-12.69,3.42-18.6-2.89-6.32-4-18.19-1.09-23.45l-1.08-.6c-3.42,6.12-1.67,18.64,1,24.57,2.54,5.55,1.63,13.95-3.29,17.27-11.66-10-16-25.12-12.56-43.83l-1.22-.23c-3.74,20.28,1.48,36.43,15.08,46.72,12.49,9.44,50.15,23.33,64.33,28.56,2.66,1,4.58,1.69,5.32,2,3.08,1.27,4.54,4.5,6.75,9.4,1,2.21,2.13,4.72,3.64,7.57C395.91,362.2,411.32,382.36,417,389.59Z" style="fill: rgb(55, 71, 79); transform-origin: 356.592px 324.505px;" id="el5p9w4xk73n7" class="animable"></path></g><g id="freepik--Top--inject-2" class="animable" style="transform-origin: 333.906px 193.823px;"><path d="M336.53,159.83c5.12-1.85,13.71-.37,20.28,8.07s17.05,48.78,17.05,48.78l22.9,21L394,255.81a290.8,290.8,0,0,1-31.29-11c-5.18-2.26-6.53-4.3-8.52-12.08-3.33-13-5.72-28-5.72-28Z" style="fill: rgb(200, 133, 106); transform-origin: 366.645px 207.467px;" id="elrbkfqowqu6" class="animable"></path><path d="M336.19,158.56c11.4-1.52,17.08,2.41,21.21,8.66s14.54,38.91,14.54,38.91-10.46,14.05-28.72,11.69Z" style="fill: rgb(69, 90, 100); transform-origin: 354.065px 188.16px;" id="elvl4drrhunvn" class="animable"></path><g id="freepik--Chest--inject-2" class="animable" style="transform-origin: 319.916px 188.742px;"><path d="M357.92,192c-.6-16.09-9.59-32.07-21.73-33.42l-21.54,3.89c-5.94,1.22-27.2,8.78-33.45,12.55-7.3,4.41-6.6,9.62-7.55,24.38-.78,12-.27,30.32.75,43.55,1.07,13.85,2.78,30.25,6.51,46.16,29.57,5.44,78.07-12.24,85.65-37-1.54-5-6.61-18.19-7.58-28.14C357.58,209.44,358.2,199.51,357.92,192Z" style="fill: rgb(38, 50, 56); transform-origin: 319.916px 224.339px;" id="el8zfrefrjdh3" class="animable"></path><g id="freepik--Head--inject-2" class="animable" style="transform-origin: 308.289px 135.408px;"><path d="M328.26,153.9c.86-6.46,7-13.39,9.7-19.09,2.58-5.5,4.09-9.74,3.59-14.81-.29-3-2.33-7-4.59-7.78,2.19-11.27-6.38-16.16-10.87-17.06a49.4,49.4,0,0,1-6.22-1.5c-2.45-.93-3.07-2.86-5.08-4.45-3.46-2.73-9.12-2.6-11.12,1.8-2.34-2.81-5.37-2.63-8.85-1.62a6,6,0,0,0-4.35,6.92c-4.77-2.45-9,1-9.29,3.78-.25,2,.25,3.74-1,5.61-1.43,2.1-4.26,2.17-5.18.54-.38,2.9.83,5.07,3.95,4.8a6.56,6.56,0,0,0-.62,5.53,6,6,0,0,0,5.55,3.94c.39,1.57.51,3,1.55,4.35a10.43,10.43,0,0,0,3.81,3.2c4.82,2.09,10.08,2.64,15.23,3.52l6.1,1c.36.06,2.19.11,2.42.41Z" style="fill: rgb(38, 50, 56); transform-origin: 308.289px 120.643px;" id="elk6nv8wd786" class="animable"></path><path d="M335.74,145.32c-4.42,2.85-7.21.31-7.21.31L329.1,168c1.95,3.61,4.44,8.7.9,15.43-4.4-.16-24.11-6.68-27.11-19.16l-.18-3.24a60.9,60.9,0,0,1-7.65-.07c-5.06-.51-9-4.46-10.62-9.86a56.92,56.92,0,0,1-1.38-21.59,18.46,18.46,0,0,0,.09-5.3c-.65-4.67.1-7.42,1.17-11.4,5.38-4.66,18.14-6.63,30.35.22-1.13,7.16,1.83,12.69,7.1,15.22-.18,1.93-.24,6.79,2.91,6.59,2.27-.15,2.32-3,4.57-5.6s7.67-3.46,9.91.17C342.29,134.49,340.59,142.19,335.74,145.32Z" style="fill: rgb(200, 133, 106); transform-origin: 311.671px 146.005px;" id="elh1nh5egkd8d" class="animable"></path><path d="M302.71,161c8-1.22,14-2.3,18-8.24a50.11,50.11,0,0,0,4.48-9.63s-.57,7.1-3,12c-1.88,3.77-6.8,7-19.28,8.54Z" style="fill: rgb(175, 97, 82); transform-origin: 313.95px 153.4px;" id="el22duxa1ymqm" class="animable"></path><path d="M305.5,130a2.27,2.27,0,0,0,2.36,2.21A2.34,2.34,0,1,0,305.5,130Z" style="fill: rgb(38, 50, 56); transform-origin: 307.836px 129.871px;" id="elg93a1phfzha" class="animable"></path><path d="M305.84,122.56l5.16,1.89a2.87,2.87,0,0,0-1.69-3.61A2.68,2.68,0,0,0,305.84,122.56Z" style="fill: rgb(38, 50, 56); transform-origin: 308.497px 122.565px;" id="el6s2bte611g5" class="animable"></path><path d="M286.53,124.75l5.12-2.12a2.67,2.67,0,0,0-3.53-1.56A2.92,2.92,0,0,0,286.53,124.75Z" style="fill: rgb(38, 50, 56); transform-origin: 289.002px 122.809px;" id="el459vvfflod8" class="animable"></path><path d="M288,130a2.25,2.25,0,1,0,1.91-2.63A2.29,2.29,0,0,0,288,130Z" style="fill: rgb(38, 50, 56); transform-origin: 290.217px 129.599px;" id="elwl3ib3pcic" class="animable"></path><path d="M291.51,138.1l7.95,3.19,1.84-15.43C298.36,124.93,294.88,132.12,291.51,138.1Z" style="fill: rgb(175, 97, 82); transform-origin: 296.405px 133.534px;" id="elvyc4p7v0un" class="animable"></path><path d="M306.91,144.2l-9.33,2.36a4.73,4.73,0,0,0,5.75,3.64A5,5,0,0,0,306.91,144.2Z" style="fill: rgb(175, 97, 82); transform-origin: 302.314px 147.267px;" id="elnuwttx8vjc" class="animable"></path><path d="M305.83,145.78a5,5,0,0,1,1.16,0,5,5,0,0,1-3.66,4.45,4.48,4.48,0,0,1-1.54.11A4.41,4.41,0,0,1,305.83,145.78Z" style="fill: rgb(255, 168, 167); transform-origin: 304.388px 148.055px;" id="elkzz3szik8q" class="animable"></path></g></g><g id="el0nn5sy8l5al"><ellipse cx="368.31" cy="239.08" rx="47.71" ry="21.43" style="fill: rgb(55, 71, 79); transform-origin: 368.31px 239.08px; transform: rotate(-60.47deg);" class="animable" id="elq7jxehi3w7l"></ellipse></g><path d="M385.45,229.18c-1.76,9.41,2.44,13.78,9.39,9.77a19.4,19.4,0,0,0,1.92-1.28l-4.88,26.09-63.22,36.5,16-85.63,63.22-36.5L403.07,204a13.11,13.11,0,0,0-1.86.9C394.27,208.89,387.22,219.77,385.45,229.18Z" style="fill: #92E3A9; transform-origin: 368.27px 239.195px;" id="el22kg4evg6xc" class="animable"></path><path d="M351.69,218a.22.22,0,0,1-.18-.1.2.2,0,0,1,.08-.29L397.77,191a.21.21,0,0,1,.21.37L351.8,218A.2.2,0,0,1,351.69,218Z" style="fill: rgb(250, 250, 250); transform-origin: 374.782px 204.49px;" id="el3glzymtarge" class="animable"></path><path d="M350.83,222.63a.21.21,0,0,1-.18-.11.21.21,0,0,1,.08-.29l46.18-26.66a.21.21,0,0,1,.21.37L350.94,222.6A.23.23,0,0,1,350.83,222.63Z" style="fill: rgb(250, 250, 250); transform-origin: 373.924px 209.086px;" id="elspn82u34zzo" class="animable"></path><path d="M340.45,278.09a.21.21,0,0,1-.19-.1.21.21,0,0,1,.08-.29L386.52,251a.22.22,0,0,1,.29.08.21.21,0,0,1-.07.29l-46.19,26.67Z" style="fill: rgb(250, 250, 250); transform-origin: 363.536px 264.533px;" id="elpys5ojynzb" class="animable"></path><path d="M339.59,282.69a.21.21,0,0,1-.11-.4l46.18-26.66a.21.21,0,0,1,.29.08.21.21,0,0,1-.08.29l-46.18,26.66A.19.19,0,0,1,339.59,282.69Z" style="fill: rgb(250, 250, 250); transform-origin: 362.668px 269.146px;" id="elzkmdmleryjn" class="animable"></path><path d="M338.7,287.44a.21.21,0,0,1-.19-.1.21.21,0,0,1,.08-.29l46.18-26.67a.22.22,0,0,1,.29.08.21.21,0,0,1-.07.29L338.8,287.42Z" style="fill: rgb(250, 250, 250); transform-origin: 361.786px 273.898px;" id="ele8up9zjqeqo" class="animable"></path><path d="M349.54,229.53a.22.22,0,0,1-.11-.4l21.89-12.63a.21.21,0,0,1,.29.07.22.22,0,0,1-.08.3L349.65,229.5A.23.23,0,0,1,349.54,229.53Z" style="fill: rgb(250, 250, 250); transform-origin: 360.488px 222.999px;" id="el4b94fz91ddw" class="animable"></path><path d="M378.26,213a.22.22,0,0,1-.11-.4l7-4.06a.21.21,0,1,1,.21.37l-7,4.06A.23.23,0,0,1,378.26,213Z" style="fill: rgb(250, 250, 250); transform-origin: 381.762px 210.756px;" id="eltq26vbpyqf" class="animable"></path><path d="M348.49,235.15a.21.21,0,0,1-.19-.1.21.21,0,0,1,.08-.29l21.88-12.64a.22.22,0,0,1,.29.08.21.21,0,0,1-.07.29l-21.89,12.64A.18.18,0,0,1,348.49,235.15Z" style="fill: rgb(250, 250, 250); transform-origin: 359.426px 228.623px;" id="elpzwiq7imnu" class="animable"></path><path d="M377.21,218.57a.23.23,0,0,1-.19-.1.21.21,0,0,1,.08-.29l7-4.06a.21.21,0,0,1,.29.07.21.21,0,0,1-.07.29l-7,4.06A.19.19,0,0,1,377.21,218.57Z" style="fill: rgb(250, 250, 250); transform-origin: 380.706px 216.329px;" id="elixfmnnbhntj" class="animable"></path><path d="M347.43,240.78a.22.22,0,0,1-.18-.1.21.21,0,0,1,.08-.29l21.88-12.64a.21.21,0,0,1,.21.37l-21.88,12.63A.2.2,0,0,1,347.43,240.78Z" style="fill: rgb(250, 250, 250); transform-origin: 358.374px 234.251px;" id="elq0837m0tx4b" class="animable"></path><path d="M376.15,224.2a.21.21,0,0,1-.18-.11.21.21,0,0,1,.08-.29l7-4.06a.21.21,0,1,1,.21.37l-7,4.06A.2.2,0,0,1,376.15,224.2Z" style="fill: rgb(250, 250, 250); transform-origin: 379.655px 221.956px;" id="elcih9yjdmoxi" class="animable"></path><path d="M346.38,246.41a.24.24,0,0,1-.19-.11.22.22,0,0,1,.08-.29l21.89-12.63a.21.21,0,0,1,.29.08.21.21,0,0,1-.08.29l-21.88,12.63A.23.23,0,0,1,346.38,246.41Z" style="fill: rgb(250, 250, 250); transform-origin: 357.322px 239.881px;" id="elmm05i4xeiqo" class="animable"></path><path d="M375.1,229.83a.23.23,0,0,1-.19-.11.22.22,0,0,1,.08-.29l7-4.06a.21.21,0,1,1,.21.37l-7,4.06A.23.23,0,0,1,375.1,229.83Z" style="fill: rgb(250, 250, 250); transform-origin: 378.596px 227.586px;" id="elnqlzo77quh" class="animable"></path><path d="M345.33,252a.21.21,0,0,1-.11-.4L367.1,239a.21.21,0,0,1,.29.07.21.21,0,0,1-.07.29L345.43,252A.19.19,0,0,1,345.33,252Z" style="fill: rgb(250, 250, 250); transform-origin: 356.259px 245.488px;" id="eltgvywekfixa" class="animable"></path><path d="M374.05,235.46a.21.21,0,0,1-.11-.4l7-4.06a.21.21,0,0,1,.29.08.21.21,0,0,1-.07.29l-7,4.06A.19.19,0,0,1,374.05,235.46Z" style="fill: rgb(250, 250, 250); transform-origin: 377.539px 233.216px;" id="eltbv2x1waxq" class="animable"></path><path d="M344.27,257.66a.2.2,0,0,1-.18-.1.21.21,0,0,1,.08-.29l21.88-12.64a.21.21,0,0,1,.21.37l-21.88,12.64Z" style="fill: rgb(250, 250, 250); transform-origin: 355.214px 251.131px;" id="eld9yq4n7j5v" class="animable"></path><path d="M373,241.08a.22.22,0,0,1-.18-.1.2.2,0,0,1,.08-.29l7-4.07a.22.22,0,0,1,.29.08.21.21,0,0,1-.08.29l-7,4.06A.2.2,0,0,1,373,241.08Z" style="fill: rgb(250, 250, 250); transform-origin: 376.503px 238.837px;" id="elppuekrzcfx" class="animable"></path><path d="M343.22,263.29a.24.24,0,0,1-.19-.1.23.23,0,0,1,.08-.3L365,250.26a.22.22,0,1,1,.22.37l-21.88,12.63A.23.23,0,0,1,343.22,263.29Z" style="fill: rgb(250, 250, 250); transform-origin: 354.187px 256.746px;" id="el56dazbup4xd" class="animable"></path><path d="M371.94,246.71a.23.23,0,0,1-.19-.11.22.22,0,0,1,.08-.29l7-4.06a.21.21,0,0,1,.21.37l-7,4.06A.23.23,0,0,1,371.94,246.71Z" style="fill: rgb(250, 250, 250); transform-origin: 375.436px 244.466px;" id="el0nk8yjlvin4a" class="animable"></path><path d="M342.17,268.92a.21.21,0,0,1-.11-.4l21.88-12.63a.21.21,0,0,1,.21.37l-21.88,12.63A.19.19,0,0,1,342.17,268.92Z" style="fill: rgb(250, 250, 250); transform-origin: 353.097px 262.392px;" id="elwyqounjjcim" class="animable"></path><path d="M370.89,252.34a.21.21,0,0,1-.11-.4l7-4.06a.21.21,0,0,1,.29.08.21.21,0,0,1-.08.29l-7,4.06A.19.19,0,0,1,370.89,252.34Z" style="fill: rgb(250, 250, 250); transform-origin: 374.378px 250.096px;" id="ellyw95xp9erq" class="animable"></path><path d="M284.19,174.44C273.79,178.37,268,181.68,265,198c-1.89,10.29-5.71,31.36-7.11,46.76-1.18,13.08-1.34,16.47,10.8,21.44,12.8,5.24,38.72,11.47,47.16,13.7,5.22,1.38,11.46,4.54,18.91,4.55l.2-17.63,1.6-8.51c-5.56.71-10.72,2.52-15.68,2.68-6.2.2-35.87-16.23-35.87-16.23l6.49-35.19S298.82,183.92,284.19,174.44Z" style="fill: rgb(200, 133, 106); transform-origin: 296.966px 229.445px;" id="elm36w4yiai5p" class="animable"></path><path d="M284.54,173.26c-6.88,2.91-14.52,4.19-18.84,17.9s-8.36,40-8.36,40,4.33,4.84,15.93,6.49,14.72,0,14.72,0,5-26.89,6-35.4S296.47,179,284.54,173.26Z" style="fill: rgb(69, 90, 100); transform-origin: 275.992px 205.822px;" id="el4k4c4iopard" class="animable"></path><path d="M395.79,242.86c-3.64,2.72-9.84,5.16-11.82,9.55-.37.82-.29,2.33.91,2.69-.41,3.22,2.28,6.12,5.25,5.14a11.32,11.32,0,0,0,6.92-5.32c5.57-9.08-.29-17.25-.29-17.25Z" style="fill: rgb(200, 133, 106); transform-origin: 391.614px 249.052px;" id="elqeck5nrra2" class="animable"></path><path d="M361.73,266.37a4,4,0,0,0,.41-1.93,2,2,0,0,0-.6-1.5,2.5,2.5,0,0,0-2.05-.27c-5,.84-9.7,2.95-14.78,3.28a16.52,16.52,0,0,1-6.6-.95c-.88-.31-2.48-.95-2.44-2.16l-.71,3.77-.23,17.79a33.83,33.83,0,0,0,5.54-.11c1-.09,2.07-.22,3.1-.37a30.37,30.37,0,0,0,12.23-4.27,16,16,0,0,0,3.44-3c1.52-1.78,1.81-4.7,1.55-6.95a3.41,3.41,0,0,1,.06-1.74,4.62,4.62,0,0,1,.66-.93A4.29,4.29,0,0,0,361.73,266.37Z" style="fill: rgb(200, 133, 106); transform-origin: 348.437px 273.514px;" id="elbc90id5ei84" class="animable"></path></g></g></g><g id="freepik--speech-bubble--inject-2" class="animable animator-hidden" style="transform-origin: 387.04px 95.47px;"><g id="freepik--speech-bubble--inject-2" class="animable" style="transform-origin: 387.04px 95.47px;"><g id="freepik--speech-bubble--inject-2" class="animable" style="transform-origin: 387.04px 95.47px;"><path d="M356.62,117.84l5.31-9.08,6.73,8.46-10,3.13A1.72,1.72,0,0,1,356.62,117.84Z" style="fill: #92E3A9; transform-origin: 362.517px 114.603px;" id="elkphu07iiu" class="animable"></path><g id="ely2584onh95m"><path d="M356.62,117.84l5.31-9.08,6.73,8.46-10,3.13A1.72,1.72,0,0,1,356.62,117.84Z" style="opacity: 0.3; transform-origin: 362.517px 114.603px;" class="animable" id="elxvyb9b0buk9"></path></g><path d="M410.45,77.09a29.66,29.66,0,1,0-4.76,41.68A29.69,29.69,0,0,0,410.45,77.09Z" style="fill: #92E3A9; transform-origin: 387.229px 95.5506px;" id="elymlpb9o3v3" class="animable"></path><g id="elysip8eiqila"><path d="M410.45,77.09a29.66,29.66,0,1,0-4.76,41.68A29.69,29.69,0,0,0,410.45,77.09Z" style="opacity: 0.3; transform-origin: 387.229px 95.5506px;" class="animable" id="elvvhpniddul"></path></g><g id="el905uosk54m"><circle cx="387.04" cy="95.47" r="26.81" style="fill: rgb(255, 255, 255); transform-origin: 387.04px 95.47px; transform: rotate(-17.55deg);" class="animable" id="elc802m7t673d"></circle></g></g><path id="freepik--musical-note--inject-2" d="M374.67,88.08l4.94,16a4.21,4.21,0,0,0-1.48.18,4.38,4.38,0,1,0,5.49,2.88L379.2,92.8l13.27-8.25h0l4.41,14.21a4.45,4.45,0,0,0-1.48.18,4.38,4.38,0,1,0,5.49,2.89h0L393.53,78.1Z" style="fill: rgb(55, 71, 79); transform-origin: 387.877px 95.4602px;" class="animable"></path></g></g><g id="freepik--musical-notes--inject-2" class="animable" style="transform-origin: 221.56px 102.58px;"><g id="freepik--Notes--inject-2" class="animable" style="transform-origin: 221.56px 102.58px;"><path id="freepik--musical-note--inject-2" d="M237.6,87.64l-2.21,10a2.62,2.62,0,0,0-.84-.35,2.68,2.68,0,1,0,2,3.19l2-9,9.56-.39h0L246.2,100a2.72,2.72,0,0,0-.84-.35,2.68,2.68,0,1,0,2,3.2h0L250.65,88Z" style="fill: #92E3A9; transform-origin: 240.952px 96.2894px;" class="animable"></path><path id="freepik--musical-note--inject-2" d="M216.57,134a4.91,4.91,0,0,1,1.89-.63,10.41,10.41,0,0,1,2.67.1,19.3,19.3,0,0,0,3.55.33,4.49,4.49,0,0,0,3.19-1.4,4.67,4.67,0,0,1-2.07-.11c-1.61-.46-3-2-4.48-2.78-2.2-1.16-4.27-.89-6.78,0,.18,2.18.3,4.37.45,6.55.11,1.72.23,3.43.34,5.14,0,.16.1,2.34.1,2.34a4.45,4.45,0,0,0-1.94-.32,3.68,3.68,0,1,0,3.93,3.42Z" style="fill: #92E3A9; transform-origin: 218.969px 139.654px;" class="animable"></path><g id="freepik--musical-note--inject-2"><path d="M216.57,134a4.91,4.91,0,0,1,1.89-.63,10.41,10.41,0,0,1,2.67.1,19.3,19.3,0,0,0,3.55.33,4.49,4.49,0,0,0,3.19-1.4,4.67,4.67,0,0,1-2.07-.11c-1.61-.46-3-2-4.48-2.78-2.2-1.16-4.27-.89-6.78,0,.18,2.18.3,4.37.45,6.55.11,1.72.23,3.43.34,5.14,0,.16.1,2.34.1,2.34a4.45,4.45,0,0,0-1.94-.32,3.68,3.68,0,1,0,3.93,3.42Z" style="fill: rgb(255, 255, 255); opacity: 0.4; transform-origin: 218.969px 139.654px;" class="animable" id="elvgd8hxsiqip"></path></g><path id="freepik--musical-note--inject-2" d="M197.35,64a5.23,5.23,0,0,1,1.11-1.86,11.3,11.3,0,0,1,2.26-1.81A19.61,19.61,0,0,0,203.88,58a4.79,4.79,0,0,0,1.64-3.41A5,5,0,0,1,203.73,56c-1.65.75-3.87.48-5.64.88-2.64.6-4.16,2.29-5.62,4.76,1.69,1.67,3.34,3.38,5,5.07l3.92,4c.13.12,1.74,1.85,1.74,1.85a4.85,4.85,0,0,0-1.83,1.11,4,4,0,1,0,5.66,0Z" style="fill: #92E3A9; transform-origin: 200.3px 67.5434px;" class="animable"></path><g id="freepik--musical-note--inject-2"><path d="M197.35,64a5.23,5.23,0,0,1,1.11-1.86,11.3,11.3,0,0,1,2.26-1.81A19.61,19.61,0,0,0,203.88,58a4.79,4.79,0,0,0,1.64-3.41A5,5,0,0,1,203.73,56c-1.65.75-3.87.48-5.64.88-2.64.6-4.16,2.29-5.62,4.76,1.69,1.67,3.34,3.38,5,5.07l3.92,4c.13.12,1.74,1.85,1.74,1.85a4.85,4.85,0,0,0-1.83,1.11,4,4,0,1,0,5.66,0Z" style="fill: rgb(255, 255, 255); opacity: 0.2; transform-origin: 200.3px 67.5434px;" class="animable" id="el6531oy40q76"></path></g></g></g><defs>     <filter id="active" height="200%">         <feMorphology in="SourceAlpha" result="DILATED" operator="dilate" radius="2"></feMorphology>                <feFlood flood-color="#32DFEC" flood-opacity="1" result="PINK"></feFlood>        <feComposite in="PINK" in2="DILATED" operator="in" result="OUTLINE"></feComposite>        <feMerge>            <feMergeNode in="OUTLINE"></feMergeNode>            <feMergeNode in="SourceGraphic"></feMergeNode>        </feMerge>    </filter>    <filter id="hover" height="200%">        <feMorphology in="SourceAlpha" result="DILATED" operator="dilate" radius="2"></feMorphology>                <feFlood flood-color="#ff0000" flood-opacity="0.5" result="PINK"></feFlood>        <feComposite in="PINK" in2="DILATED" operator="in" result="OUTLINE"></feComposite>        <feMerge>            <feMergeNode in="OUTLINE"></feMergeNode>            <feMergeNode in="SourceGraphic"></feMergeNode>        </feMerge>            <feColorMatrix type="matrix" values="0   0   0   0   0                0   1   0   0   0                0   0   0   0   0                0   0   0   1   0 "></feColorMatrix>    </filter></defs></svg>